<svg width="32" height="32" viewBox="0 0 32 32" fill="none" xmlns="http://www.w3.org/2000/svg">
<path d="M25.3334 10.667H22.6667V8.00033C22.6667 7.6467 22.5262 7.30757 22.2762 7.05752C22.0261 6.80747 21.687 6.66699 21.3334 6.66699C20.9797 6.66699 20.6406 6.80747 20.3905 7.05752C20.1405 7.30757 20 7.6467 20 8.00033V10.667H17.3334V8.00033C17.3334 7.6467 17.1929 7.30757 16.9428 7.05752C16.6928 6.80747 16.3536 6.66699 16 6.66699C15.6464 6.66699 15.3073 6.80747 15.0572 7.05752C14.8072 7.30757 14.6667 7.6467 14.6667 8.00033V10.667H12V8.00033C12 7.6467 11.8595 7.30757 11.6095 7.05752C11.3594 6.80747 11.0203 6.66699 10.6667 6.66699C10.3131 6.66699 9.97393 6.80747 9.72388 7.05752C9.47383 7.30757 9.33335 7.6467 9.33335 8.00033V10.667H6.66669C5.60582 10.667 4.58841 11.0884 3.83826 11.8386C3.08811 12.5887 2.66669 13.6061 2.66669 14.667V25.3337C2.66669 26.3945 3.08811 27.4119 3.83826 28.1621C4.58841 28.9122 5.60582 29.3337 6.66669 29.3337H25.3334C26.3942 29.3337 27.4116 28.9122 28.1618 28.1621C28.9119 27.4119 29.3334 26.3945 29.3334 25.3337V14.667C29.3334 13.6061 28.9119 12.5887 28.1618 11.8386C27.4116 11.0884 26.3942 10.667 25.3334 10.667ZM6.66669 13.3337H25.3334C25.687 13.3337 26.0261 13.4741 26.2762 13.7242C26.5262 13.9742 26.6667 14.3134 26.6667 14.667V16.8683C26.1651 17.0247 25.6903 17.2567 25.2587 17.5563C24.8996 17.845 24.4527 18.0024 23.992 18.0024C23.5313 18.0024 23.0844 17.845 22.7254 17.5563C21.9285 16.9781 20.9692 16.6668 19.9847 16.6668C19.0002 16.6668 18.0409 16.9781 17.244 17.5563C16.8866 17.8428 16.4421 17.999 15.984 17.999C15.5259 17.999 15.0815 17.8428 14.724 17.5563C13.9362 16.9661 12.975 16.6534 11.9907 16.667C11.0045 16.6531 10.0414 16.9663 9.25202 17.5577C8.90306 17.8537 8.45751 18.0112 8.00002 18.0003C7.54105 18.013 7.09364 17.8553 6.74402 17.5577C6.31165 17.2574 5.83594 17.0249 5.33335 16.8683V14.667C5.33335 14.3134 5.47383 13.9742 5.72388 13.7242C5.97393 13.4741 6.31307 13.3337 6.66669 13.3337ZM25.3334 26.667H6.66669C6.31307 26.667 5.97393 26.5265 5.72388 26.2765C5.47383 26.0264 5.33335 25.6873 5.33335 25.3337V19.8243C6.10628 20.3891 7.04293 20.6851 8.00002 20.667C8.98625 20.6809 9.94931 20.3677 10.7387 19.7763C11.0958 19.4897 11.5401 19.3335 11.998 19.3335C12.456 19.3335 12.9002 19.4897 13.2574 19.7763C14.0532 20.3552 15.012 20.667 15.996 20.667C16.9801 20.667 17.9389 20.3552 18.7347 19.7763C19.0929 19.4897 19.538 19.3336 19.9967 19.3336C20.4554 19.3336 20.9005 19.4897 21.2587 19.7763C22.0492 20.3675 23.013 20.6807 24 20.667C24.9574 20.6824 25.8936 20.3852 26.6667 19.8203V25.3337C26.6667 25.6873 26.5262 26.0264 26.2762 26.2765C26.0261 26.5265 25.687 26.667 25.3334 26.667Z" fill="#325F6B"/>
<path d="M10.6666 5.33366C11.403 5.33366 12 4.73671 12 4.00033C12 3.26395 11.403 2.66699 10.6666 2.66699C9.93027 2.66699 9.33331 3.26395 9.33331 4.00033C9.33331 4.73671 9.93027 5.33366 10.6666 5.33366Z" fill="#325F6B"/>
<path d="M16 5.33366C16.7364 5.33366 17.3334 4.73671 17.3334 4.00033C17.3334 3.26395 16.7364 2.66699 16 2.66699C15.2636 2.66699 14.6667 3.26395 14.6667 4.00033C14.6667 4.73671 15.2636 5.33366 16 5.33366Z" fill="#325F6B"/>
<path d="M21.3333 5.33366C22.0697 5.33366 22.6667 4.73671 22.6667 4.00033C22.6667 3.26395 22.0697 2.66699 21.3333 2.66699C20.597 2.66699 20 3.26395 20 4.00033C20 4.73671 20.597 5.33366 21.3333 5.33366Z" fill="#325F6B"/>
</svg>
