<svg width="20" height="20" viewBox="0 0 20 20" fill="none" xmlns="http://www.w3.org/2000/svg">
<rect x="1" y="1" width="18" height="18" rx="3" stroke="#325F6B" stroke-width="2"/>
<path d="M12.6447 7.28071L9.10871 10.8157L7.69471 9.40171C7.50611 9.21955 7.25351 9.11876 6.99131 9.12104C6.72911 9.12332 6.4783 9.22849 6.29289 9.41389C6.10748 9.5993 6.00232 9.85011 6.00004 10.1123C5.99776 10.3745 6.09855 10.6271 6.28071 10.8157L8.40171 12.9367C8.58924 13.1242 8.84355 13.2295 9.10871 13.2295C9.37388 13.2295 9.62818 13.1242 9.81571 12.9367L14.0587 8.69471C14.2409 8.50611 14.3417 8.25351 14.3394 7.99131C14.3371 7.72911 14.2319 7.4783 14.0465 7.29289C13.8611 7.10748 13.6103 7.00232 13.3481 7.00004C13.0859 6.99776 12.8333 7.09855 12.6447 7.28071V7.28071Z" fill="#325F6B"/>
</svg>
