<svg width="24" height="24" viewBox="0 0 24 24" fill="none" xmlns="http://www.w3.org/2000/svg">
<path d="M18.016 2.00921L6.01602 1.99121C5.22037 1.99121 4.45731 2.30728 3.8947 2.86989C3.33209 3.4325 3.01602 4.19556 3.01602 4.99121L2.99402 18.9912C2.99402 19.7869 3.31009 20.5499 3.8727 21.1125C4.43531 21.6751 5.19837 21.9912 5.99402 21.9912L17.994 22.0092C18.7897 22.0092 19.5527 21.6931 20.1153 21.1305C20.6779 20.5679 20.994 19.8049 20.994 19.0092C20.994 18.744 20.8887 18.4896 20.7011 18.3021C20.5136 18.1146 20.2592 18.0092 19.994 18.0092C19.7288 18.0092 19.4744 18.1146 19.2869 18.3021C19.0994 18.4896 18.994 18.744 18.994 19.0092C18.994 19.2744 18.8887 19.5288 18.7011 19.7163C18.5136 19.9039 18.2592 20.0092 17.994 20.0092L5.99402 19.9912C5.7288 19.9912 5.47445 19.8859 5.28691 19.6983C5.09938 19.5108 4.99402 19.2564 4.99402 18.9912L5.01602 4.99121C5.01602 4.72599 5.12138 4.47164 5.30891 4.2841C5.49645 4.09657 5.7508 3.99121 6.01602 3.99121V3.99121L18.016 4.00921C18.2812 4.00921 18.5356 4.11457 18.7231 4.3021C18.9107 4.48964 19.016 4.74399 19.016 5.00921L19 8.96121C19 9.22643 19.1054 9.48078 19.2929 9.66832C19.4804 9.85585 19.7348 9.96121 20 9.96121C20.2652 9.96121 20.5196 9.85585 20.7071 9.66832C20.8947 9.48078 21 9.22643 21 8.96121L21.011 5.00721C21.0105 4.21277 20.6949 3.45098 20.1334 2.88895C19.5719 2.32692 18.8105 2.01053 18.016 2.00921V2.00921Z" fill="black" fill-opacity="0.5"/>
<path d="M16.3 17.7002C16.4875 17.8877 16.7418 17.993 17.007 17.993C17.2721 17.993 17.5265 17.8877 17.714 17.7002L20.709 14.6952C20.8965 14.5077 21.0018 14.2533 21.0018 13.9882C21.0018 13.723 20.8965 13.4687 20.709 13.2812L17.709 10.2862C17.6161 10.1929 17.5058 10.1189 17.3844 10.0683C17.2629 10.0177 17.1327 9.99149 17.0011 9.99121C16.8695 9.99093 16.7392 10.0166 16.6175 10.0667C16.4958 10.1168 16.3852 10.1903 16.292 10.2832C16.1987 10.376 16.1247 10.4863 16.0741 10.6078C16.0235 10.7292 15.9973 10.8595 15.997 10.9911C15.9967 11.1226 16.0224 11.253 16.0725 11.3747C16.1226 11.4963 16.1961 11.6069 16.289 11.7002L17.589 12.9912H14.942C14.2901 12.9918 13.6447 13.1213 13.043 13.3722C12.4412 13.6231 11.8951 13.9905 11.4358 14.4532C10.9765 14.9159 10.6133 15.4648 10.3669 16.0684C10.1204 16.6719 9.99576 17.3183 9.99998 17.9702C10.0016 18.2344 10.1076 18.4872 10.295 18.6734C10.4824 18.8597 10.7358 18.9642 11 18.9642H11.006C11.1373 18.9634 11.2672 18.9368 11.3882 18.8858C11.5092 18.8348 11.619 18.7605 11.7113 18.6671C11.8036 18.5736 11.8766 18.463 11.9262 18.3413C11.9757 18.2197 12.0008 18.0895 12 17.9582C11.9976 17.5702 12.0719 17.1855 12.2186 16.8263C12.3652 16.467 12.5814 16.1403 12.8546 15.8648C13.1279 15.5893 13.4529 15.3705 13.8109 15.2209C14.1689 15.0714 14.553 14.994 14.941 14.9932H17.587L16.3 16.2832C16.2067 16.3761 16.1327 16.4865 16.0822 16.6081C16.0317 16.7297 16.0057 16.86 16.0057 16.9917C16.0057 17.1233 16.0317 17.2537 16.0822 17.3753C16.1327 17.4969 16.2067 17.6073 16.3 17.7002V17.7002Z" fill="black" fill-opacity="0.5"/>
</svg>
