<svg width="32" height="32" viewBox="0 0 32 32" fill="none" xmlns="http://www.w3.org/2000/svg">
<path d="M10.8 26.667H6.66667C6.31305 26.667 5.97391 26.5265 5.72386 26.2765C5.47381 26.0264 5.33333 25.6873 5.33333 25.3337V9.33366C5.33333 8.98004 5.47381 8.6409 5.72386 8.39085C5.97391 8.1408 6.31305 8.00033 6.66667 8.00033H8V9.33366C8 9.68728 8.14048 10.0264 8.39053 10.2765C8.64057 10.5265 8.97971 10.667 9.33333 10.667H17.3333C17.687 10.667 18.0261 10.5265 18.2761 10.2765C18.5262 10.0264 18.6667 9.68728 18.6667 9.33366V8.00033H20C20.3536 8.00033 20.6928 8.1408 20.9428 8.39085C21.1929 8.6409 21.3333 8.98004 21.3333 9.33366V11.027C21.3333 11.3806 21.4738 11.7198 21.7239 11.9698C21.9739 12.2199 22.313 12.3603 22.6667 12.3603C23.0203 12.3603 23.3594 12.2199 23.6095 11.9698C23.8595 11.7198 24 11.3806 24 11.027V9.33366C24 8.27279 23.5786 7.25538 22.8284 6.50523C22.0783 5.75509 21.0609 5.33366 20 5.33366H18.4213C18.1466 4.55645 17.6384 3.88311 16.9663 3.40578C16.2942 2.92844 15.491 2.67041 14.6667 2.66699H12C11.1757 2.67041 10.3725 2.92844 9.7004 3.40578C9.02831 3.88311 8.52011 4.55645 8.24533 5.33366H6.66667C5.6058 5.33366 4.58839 5.75509 3.83824 6.50523C3.0881 7.25538 2.66667 8.27279 2.66667 9.33366V25.3337C2.66667 26.3945 3.0881 27.4119 3.83824 28.1621C4.58839 28.9122 5.6058 29.3337 6.66667 29.3337H10.8C11.1536 29.3337 11.4928 29.1932 11.7428 28.9431C11.9929 28.6931 12.1333 28.3539 12.1333 28.0003C12.1333 27.6467 11.9929 27.3076 11.7428 27.0575C11.4928 26.8075 11.1536 26.667 10.8 26.667ZM12 5.33366H14.6667C15.0203 5.33366 15.3594 5.47413 15.6095 5.72418C15.8595 5.97423 16 6.31337 16 6.66699V8.00033H10.6667V6.66699C10.6667 6.31337 10.8071 5.97423 11.0572 5.72418C11.3072 5.47413 11.6464 5.33366 12 5.33366V5.33366Z" fill="#325F6B"/>
<path d="M29.8853 14.8003L28 12.915C27.4922 12.4299 26.8169 12.1592 26.1147 12.1592C25.4124 12.1592 24.7371 12.4299 24.2293 12.915L14.8 22.3443C14.6138 22.53 14.4867 22.7666 14.4347 23.0243L13.4933 27.7337C13.4538 27.9274 13.4578 28.1275 13.5052 28.3195C13.5525 28.5115 13.6419 28.6906 13.767 28.8437C13.8921 28.9969 14.0497 29.1203 14.2283 29.205C14.407 29.2898 14.6023 29.3337 14.8 29.3337C14.8896 29.3337 14.9789 29.3247 15.0667 29.307L19.7813 28.3643C20.0389 28.3126 20.2755 28.186 20.4613 28.0003L29.8893 18.5723C30.1368 18.3244 30.333 18.0302 30.4668 17.7065C30.6005 17.3827 30.6691 17.0358 30.6688 16.6855C30.6684 16.3352 30.599 15.9884 30.4646 15.665C30.3302 15.3415 30.1333 15.0477 29.8853 14.8003V14.8003ZM18.8573 25.8283L16.5 26.3003L16.972 23.9443L26.1147 14.8003L28 16.6857L18.8573 25.8283Z" fill="#325F6B"/>
<path d="M8.956 13.7039L8.90933 13.6572C8.78996 13.5377 8.64821 13.4429 8.49218 13.3782C8.33615 13.3136 8.1689 13.2803 8 13.2803C7.8311 13.2803 7.66385 13.3136 7.50782 13.3782C7.35179 13.4429 7.21004 13.5377 7.09067 13.6572L7.044 13.7039C6.92451 13.8232 6.82971 13.965 6.76503 14.121C6.70036 14.2771 6.66707 14.4443 6.66707 14.6132C6.66707 14.7821 6.70036 14.9494 6.76503 15.1054C6.82971 15.2614 6.92451 15.4032 7.044 15.5225L7.09067 15.5705C7.3321 15.8112 7.6591 15.9464 8 15.9464C8.3409 15.9464 8.6679 15.8112 8.90933 15.5705L8.956 15.5225C9.07549 15.4032 9.17029 15.2614 9.23497 15.1054C9.29964 14.9494 9.33293 14.7821 9.33293 14.6132C9.33293 14.4443 9.29964 14.2771 9.23497 14.121C9.17029 13.965 9.07549 13.8232 8.956 13.7039Z" fill="#325F6B"/>
<path d="M8.956 17.7039L8.90933 17.6572C8.78996 17.5377 8.64821 17.4429 8.49218 17.3782C8.33615 17.3136 8.1689 17.2803 8 17.2803C7.8311 17.2803 7.66385 17.3136 7.50782 17.3782C7.35179 17.4429 7.21004 17.5377 7.09067 17.6572L7.044 17.7039C6.92451 17.8232 6.82971 17.965 6.76503 18.121C6.70036 18.2771 6.66707 18.4443 6.66707 18.6132C6.66707 18.7821 6.70036 18.9494 6.76503 19.1054C6.82971 19.2614 6.92451 19.4032 7.044 19.5225L7.09067 19.5705C7.3321 19.8112 7.6591 19.9464 8 19.9464C8.3409 19.9464 8.6679 19.8112 8.90933 19.5705L8.956 19.5225C9.07549 19.4032 9.17029 19.2614 9.23497 19.1054C9.29964 18.9494 9.33293 18.7821 9.33293 18.6132C9.33293 18.4443 9.29964 18.2771 9.23497 18.121C9.17029 17.965 9.07549 17.8232 8.956 17.7039V17.7039Z" fill="#325F6B"/>
<path d="M8.90933 21.6572C8.78996 21.5377 8.64821 21.4429 8.49218 21.3782C8.33615 21.3136 8.1689 21.2803 8 21.2803C7.8311 21.2803 7.66385 21.3136 7.50782 21.3782C7.35179 21.4429 7.21004 21.5377 7.09067 21.6572L7.044 21.7039C6.92451 21.8232 6.82971 21.965 6.76503 22.121C6.70036 22.2771 6.66707 22.4443 6.66707 22.6132C6.66707 22.7821 6.70036 22.9494 6.76503 23.1054C6.82971 23.2614 6.92451 23.4032 7.044 23.5225L7.09067 23.5705C7.3321 23.8112 7.6591 23.9464 8 23.9464C8.3409 23.9464 8.6679 23.8112 8.90933 23.5705L8.956 23.5225C9.07549 23.4032 9.17029 23.2614 9.23497 23.1054C9.29964 22.9494 9.33293 22.7821 9.33293 22.6132C9.33293 22.4443 9.29964 22.2771 9.23497 22.121C9.17029 21.965 9.07549 21.8232 8.956 21.7039L8.90933 21.6572Z" fill="#325F6B"/>
</svg>
