<svg width="24" height="24" viewBox="0 0 24 24" fill="none" xmlns="http://www.w3.org/2000/svg">
<path d="M19.8 10.2318L6.67399 3.28375C6.32087 3.09655 5.91977 3.01943 5.52241 3.06235C5.12505 3.10527 4.74967 3.26625 4.44467 3.52454C4.13967 3.78283 3.91906 4.12657 3.81128 4.51144C3.7035 4.8963 3.7135 5.30463 3.83999 5.68375V5.68375L5.94599 11.9998L3.83999 18.3158C3.7135 18.6949 3.7035 19.1032 3.81128 19.4881C3.91906 19.8729 4.13967 20.2167 4.44467 20.475C4.74967 20.7333 5.12505 20.8942 5.52241 20.9372C5.91977 20.9801 6.32087 20.903 6.67399 20.7158L19.8 13.7668C20.1212 13.5966 20.39 13.3422 20.5775 13.0308C20.765 12.7194 20.8641 12.3628 20.8641 11.9993C20.8641 11.6358 20.765 11.2791 20.5775 10.9677C20.39 10.6563 20.1212 10.4019 19.8 10.2318V10.2318ZM5.73799 5.05175L16.974 10.9998H7.72099L5.73799 5.05175ZM5.73799 18.9518L7.72099 12.9998H16.974L5.73799 18.9518Z" fill="black" fill-opacity="0.5"/>
</svg>
