<svg width="32" height="32" viewBox="0 0 32 32" fill="none" xmlns="http://www.w3.org/2000/svg">
<path d="M17.3334 29.3337H14.6667C13.6058 29.3337 12.5884 28.9122 11.8383 28.1621C11.0881 27.4119 10.6667 26.3945 10.6667 25.3337V21.3337H6.66669C5.60582 21.3337 4.58841 20.9122 3.83826 20.1621C3.08811 19.4119 2.66669 18.3945 2.66669 17.3337V14.667C2.66669 13.6061 3.08811 12.5887 3.83826 11.8386C4.58841 11.0884 5.60582 10.667 6.66669 10.667H10.6667V6.66699C10.6667 5.60613 11.0881 4.58871 11.8383 3.83857C12.5884 3.08842 13.6058 2.66699 14.6667 2.66699H17.3334C18.3942 2.66699 19.4116 3.08842 20.1618 3.83857C20.9119 4.58871 21.3334 5.60613 21.3334 6.66699V10.667H25.3334C26.3942 10.667 27.4116 11.0884 28.1618 11.8386C28.9119 12.5887 29.3334 13.6061 29.3334 14.667V17.3337C29.3334 18.3945 28.9119 19.4119 28.1618 20.1621C27.4116 20.9122 26.3942 21.3337 25.3334 21.3337H21.3334V25.3337C21.3334 26.3945 20.9119 27.4119 20.1618 28.1621C19.4116 28.9122 18.3942 29.3337 17.3334 29.3337ZM6.66669 13.3337C6.31307 13.3337 5.97393 13.4741 5.72388 13.7242C5.47383 13.9742 5.33335 14.3134 5.33335 14.667V17.3337C5.33335 17.6873 5.47383 18.0264 5.72388 18.2765C5.97393 18.5265 6.31307 18.667 6.66669 18.667H12C12.3536 18.667 12.6928 18.8075 12.9428 19.0575C13.1929 19.3076 13.3334 19.6467 13.3334 20.0003V25.3337C13.3334 25.6873 13.4738 26.0264 13.7239 26.2765C13.9739 26.5265 14.3131 26.667 14.6667 26.667H17.3334C17.687 26.667 18.0261 26.5265 18.2762 26.2765C18.5262 26.0264 18.6667 25.6873 18.6667 25.3337V20.0003C18.6667 19.6467 18.8072 19.3076 19.0572 19.0575C19.3073 18.8075 19.6464 18.667 20 18.667H25.3334C25.687 18.667 26.0261 18.5265 26.2762 18.2765C26.5262 18.0264 26.6667 17.6873 26.6667 17.3337V14.667C26.6667 14.3134 26.5262 13.9742 26.2762 13.7242C26.0261 13.4741 25.687 13.3337 25.3334 13.3337H20C19.6464 13.3337 19.3073 13.1932 19.0572 12.9431C18.8072 12.6931 18.6667 12.3539 18.6667 12.0003V6.66699C18.6667 6.31337 18.5262 5.97423 18.2762 5.72418C18.0261 5.47413 17.687 5.33366 17.3334 5.33366H14.6667C14.3131 5.33366 13.9739 5.47413 13.7239 5.72418C13.4738 5.97423 13.3334 6.31337 13.3334 6.66699V12.0003C13.3334 12.3539 13.1929 12.6931 12.9428 12.9431C12.6928 13.1932 12.3536 13.3337 12 13.3337H6.66669Z" fill="#325F6B"/>
</svg>
