<svg width="32" height="32" viewBox="0 0 32 32" fill="none" xmlns="http://www.w3.org/2000/svg">
<path d="M18.5733 29.3336H18.4533C17.8856 29.3144 17.339 29.1144 16.8929 28.7628C16.4468 28.4112 16.1246 27.9264 15.9733 27.3789L13.4506 18.5509L4.6213 16.0269C4.07689 15.8714 3.59523 15.5484 3.24458 15.1039C2.89392 14.6593 2.69205 14.1157 2.66756 13.55C2.64308 12.9844 2.79722 12.4253 3.10815 11.9521C3.41908 11.4789 3.87103 11.1156 4.39997 10.9136L25.6786 2.84558C26.1641 2.66114 26.6926 2.62092 27.2004 2.72978C27.7083 2.83864 28.1738 3.09193 28.541 3.45917C28.9083 3.82642 29.1616 4.29196 29.2704 4.79979C29.3793 5.30761 29.3391 5.83608 29.1546 6.32158L21.0866 27.6002C20.897 28.1127 20.5539 28.5542 20.1041 28.8644C19.6543 29.1746 19.1197 29.3384 18.5733 29.3336V29.3336ZM26.624 5.33358L5.35197 13.4056L14.896 16.1882C15.1138 16.2508 15.3122 16.3679 15.4722 16.5284C15.6322 16.6889 15.7487 16.8875 15.8106 17.1056L18.5333 26.6456L26.6666 5.37625L26.624 5.33358Z" fill="#325F6B"/>
</svg>
