<svg width="32" height="32" viewBox="0 0 32 32" fill="none" xmlns="http://www.w3.org/2000/svg">
<path d="M25.3333 22.6663H21.6187C21.6707 22.2192 21.6208 21.7661 21.4728 21.341C21.3248 20.9159 21.0825 20.5298 20.764 20.2117L16.3907 15.8383C16.02 15.4655 15.5791 15.17 15.0935 14.9688C14.6078 14.7676 14.087 14.6648 13.5613 14.6663H8C8 14.3127 7.85953 13.9736 7.60948 13.7235C7.35943 13.4735 7.02029 13.333 6.66667 13.333H4C3.64638 13.333 3.30724 13.4735 3.05719 13.7235C2.80714 13.9736 2.66667 14.3127 2.66667 14.6663C2.66667 15.02 2.80714 15.3591 3.05719 15.6092C3.30724 15.8592 3.64638 15.9997 4 15.9997H5.33333V23.9997H4C3.64638 23.9997 3.30724 24.1402 3.05719 24.3902C2.80714 24.6402 2.66667 24.9794 2.66667 25.333C2.66667 25.6866 2.80714 26.0258 3.05719 26.2758C3.30724 26.5259 3.64638 26.6663 4 26.6663H6.66667C7.02029 26.6663 7.35943 26.5259 7.60948 26.2758C7.85953 26.0258 8 25.6866 8 25.333H8.78133L11.6093 28.161C11.98 28.5338 12.4209 28.8294 12.9066 29.0305C13.3922 29.2317 13.913 29.3345 14.4387 29.333H27.3333C27.8638 29.333 28.3725 29.1223 28.7475 28.7472C29.1226 28.3721 29.3333 27.8634 29.3333 27.333V26.6663C29.3333 25.6055 28.9119 24.5881 28.1618 23.8379C27.4116 23.0878 26.3942 22.6663 25.3333 22.6663ZM14.4387 26.6663C14.2634 26.6665 14.0897 26.632 13.9278 26.565C13.7658 26.498 13.6186 26.3997 13.4947 26.2757L10.276 23.057C10.026 22.8069 9.68693 22.6664 9.33333 22.6663H8V17.333H13.5613C13.7366 17.3329 13.9103 17.3673 14.0722 17.4343C14.2342 17.5014 14.3814 17.5997 14.5053 17.7237L18.8787 22.097C18.9254 22.1436 18.9572 22.2031 18.9702 22.2678C18.9831 22.3326 18.9765 22.3997 18.9512 22.4607C18.9259 22.5216 18.8831 22.5737 18.8282 22.6104C18.7732 22.647 18.7087 22.6665 18.6427 22.6663H17.8853L15.6093 20.3903C15.3579 20.1475 15.0211 20.0131 14.6715 20.0161C14.3219 20.0191 13.9875 20.1594 13.7402 20.4066C13.493 20.6538 13.3528 20.9882 13.3498 21.3378C13.3467 21.6874 13.4811 22.0242 13.724 22.2757L16.3907 24.9423C16.6414 25.1913 16.98 25.3316 17.3333 25.333H25.3333C25.687 25.333 26.0261 25.4735 26.2761 25.7235C26.5262 25.9736 26.6667 26.3127 26.6667 26.6663H14.4387Z" fill="#325F6B"/>
<path d="M24 13.3337C25.0548 13.3337 26.086 13.0209 26.963 12.4348C27.8401 11.8488 28.5237 11.0158 28.9274 10.0413C29.331 9.06677 29.4366 7.99441 29.2309 6.95985C29.0251 5.92528 28.5171 4.97497 27.7712 4.22909C27.0254 3.48321 26.075 2.97526 25.0405 2.76947C24.0059 2.56369 22.9336 2.6693 21.959 3.07297C20.9845 3.47664 20.1515 4.16022 19.5655 5.03729C18.9795 5.91435 18.6667 6.94549 18.6667 8.00033C18.6667 9.41482 19.2286 10.7714 20.2288 11.7716C21.229 12.7718 22.5855 13.3337 24 13.3337ZM24 5.33366C24.5274 5.33366 25.043 5.49006 25.4815 5.78308C25.9201 6.07609 26.2618 6.49257 26.4637 6.97984C26.6655 7.46711 26.7183 8.00329 26.6154 8.52057C26.5125 9.03785 26.2586 9.51301 25.8856 9.88595C25.5127 10.2589 25.0375 10.5129 24.5202 10.6158C24.003 10.7186 23.4668 10.6658 22.9795 10.464C22.4922 10.2622 22.0758 9.92038 21.7827 9.48185C21.4897 9.04332 21.3333 8.52775 21.3333 8.00033C21.3333 7.29308 21.6143 6.61481 22.1144 6.11471C22.6145 5.61461 23.2928 5.33366 24 5.33366V5.33366Z" fill="#325F6B"/>
</svg>
