<svg width="32" height="32" viewBox="0 0 32 32" fill="none" xmlns="http://www.w3.org/2000/svg">
<path d="M27.3333 13.2705C27.8638 13.2705 28.3725 13.0598 28.7475 12.6847C29.1226 12.3097 29.3333 11.801 29.3333 11.2705V8.37053C29.3331 7.9838 29.2208 7.60541 29.0099 7.28121C28.7991 6.957 28.4988 6.70088 28.1453 6.54387L16.8133 1.50653C16.5575 1.39277 16.2806 1.33398 16.0007 1.33398C15.7207 1.33398 15.4438 1.39277 15.188 1.50653L3.85467 6.54253C3.50103 6.69964 3.20056 6.95597 2.9897 7.28043C2.77883 7.6049 2.66662 7.98357 2.66667 8.37053V11.2705C2.66667 11.801 2.87738 12.3097 3.25245 12.6847C3.62753 13.0598 4.13624 13.2705 4.66667 13.2705H5.33333V15.9212C5.33333 16.2748 5.47381 16.614 5.72386 16.864C5.97391 17.1141 6.31305 17.2545 6.66667 17.2545C7.02029 17.2545 7.35943 17.1141 7.60948 16.864C7.85953 16.614 8 16.2748 8 15.9212V13.2705H18.6667V22.6039H16.5027C16.149 22.6039 15.8099 22.7443 15.5599 22.9944C15.3098 23.2444 15.1693 23.5836 15.1693 23.9372C15.1693 24.2908 15.3098 24.63 15.5599 24.88C15.8099 25.1301 16.149 25.2705 16.5027 25.2705H26.6667V26.6039H5.33333V22.7839C5.33333 22.6071 5.40357 22.4375 5.5286 22.3125C5.65362 22.1874 5.82319 22.1172 6 22.1172H10.1133L9.72267 22.5079C9.59844 22.6317 9.49981 22.7787 9.43241 22.9406C9.36501 23.1025 9.33016 23.2761 9.32985 23.4515C9.32954 23.6269 9.36377 23.8006 9.4306 23.9628C9.49743 24.1249 9.59554 24.2723 9.71933 24.3965C9.84313 24.5208 9.99018 24.6194 10.1521 24.6868C10.314 24.7542 10.4876 24.789 10.663 24.7894C10.8384 24.7897 11.0121 24.7554 11.1742 24.6886C11.3364 24.6218 11.4838 24.5237 11.608 24.3999L14.2747 21.7332C14.398 21.6084 14.4958 21.4607 14.5627 21.2985C14.6635 21.0551 14.6899 20.7873 14.6387 20.5289C14.5874 20.2705 14.4608 20.033 14.2747 19.8465L11.608 17.1799C11.3578 16.9299 11.0186 16.7895 10.6649 16.7896C10.3112 16.7897 9.97201 16.9303 9.722 17.1805C9.47199 17.4307 9.33161 17.77 9.33173 18.1237C9.33186 18.4774 9.47248 18.8165 9.72267 19.0665L10.1133 19.4572H6C5.11595 19.4572 4.2681 19.8084 3.64298 20.4335C3.01786 21.0586 2.66667 21.9065 2.66667 22.7905V27.2772C2.66667 27.8076 2.87738 28.3163 3.25245 28.6914C3.62753 29.0665 4.13624 29.2772 4.66667 29.2772H27.3333C27.8638 29.2772 28.3725 29.0665 28.7475 28.6914C29.1226 28.3163 29.3333 27.8076 29.3333 27.2772V24.6105C29.3333 24.0801 29.1226 23.5714 28.7475 23.1963C28.3725 22.8213 27.8638 22.6105 27.3333 22.6105H26.6667V13.2772L27.3333 13.2705ZM5.33333 8.79987L16 4.05853L26.6667 8.79987V10.5999H5.33333V8.79987ZM24 22.5999H21.3333V13.2665H24V22.5999Z" fill="#325F6B"/>
</svg>
