<svg width="32" height="32" viewBox="0 0 32 32" fill="none" xmlns="http://www.w3.org/2000/svg">
<path d="M27.2 15.5866C28.0044 14.5643 28.4412 13.3008 28.44 12V9.7733C28.4366 8.2421 27.8285 6.77422 26.748 5.6893C25.6476 4.63716 24.1835 4.05063 22.661 4.05212C21.1386 4.05361 19.6756 4.643 18.5773 5.6973C18.046 6.23785 17.6277 6.87875 17.3466 7.58263C16.4605 7.37797 15.5394 7.37797 14.6533 7.58263C14.3707 6.8749 13.9496 6.23074 13.4146 5.68796C12.3143 4.63582 10.8501 4.04929 9.32771 4.05078C7.80529 4.05227 6.34226 4.64167 5.24398 5.69596C4.1674 6.78014 3.56222 8.2454 3.55998 9.7733V12C3.5588 13.3008 3.99559 14.5643 4.79998 15.5866C3.76905 16.0387 2.89217 16.7814 2.27651 17.7238C1.66086 18.6662 1.3331 19.7676 1.33331 20.8933V21.9733C1.33331 22.6805 1.61426 23.3588 2.11436 23.8589C2.61446 24.359 3.29274 24.64 3.99998 24.64H7.99998V25.3333C7.99998 26.0405 8.28093 26.7188 8.78103 27.2189C9.28112 27.719 9.9594 28 10.6666 28H21.3333C22.0406 28 22.7188 27.719 23.2189 27.2189C23.719 26.7188 24 26.0405 24 25.3333V24.64H28C28.7072 24.64 29.3855 24.359 29.8856 23.8589C30.3857 23.3588 30.6666 22.6805 30.6666 21.9733V20.8933C30.6669 19.7676 30.3391 18.6662 29.7234 17.7238C29.1078 16.7814 28.2309 16.0387 27.2 15.5866V15.5866ZM3.99998 20.8933C3.99927 20.0679 4.32592 19.2759 4.90831 18.691C5.49069 18.1062 6.28127 17.7761 7.10665 17.7733C7.46027 17.7733 7.79941 17.6328 8.04946 17.3828C8.2995 17.1327 8.43998 16.7936 8.43998 16.44V15.84C8.44044 15.6055 8.37905 15.375 8.26201 15.1718C8.14496 14.9686 7.97639 14.7999 7.77331 14.6826C7.30215 14.4112 6.911 14.0202 6.63941 13.5492C6.36783 13.0781 6.22544 12.5437 6.22665 12V9.7733C6.22688 8.95653 6.54822 8.17259 7.12131 7.59063C7.71415 7.01979 8.50471 6.70022 9.3277 6.69873C10.1507 6.69724 10.9424 7.01394 11.5373 7.58263C11.868 7.91906 12.1163 8.32751 12.2626 8.77596C12.1466 8.87196 12.02 8.9493 11.9106 9.0573C10.8344 10.1411 10.2292 11.6059 10.2266 13.1333V15.36C10.2255 16.6608 10.6623 17.9243 11.4666 18.9466C10.1241 19.5415 9.05693 20.623 8.47998 21.9733H3.99998V20.8933ZM10.6666 25.3333V24.2533C10.6659 23.4279 10.9926 22.6359 11.575 22.051C12.1574 21.4662 12.9479 21.1361 13.7733 21.1333C14.1269 21.1333 14.4661 20.9928 14.7161 20.7428C14.9662 20.4927 15.1066 20.1536 15.1066 19.8V19.2C15.1071 18.9655 15.0457 18.735 14.9287 18.5318C14.8116 18.3286 14.6431 18.1599 14.44 18.0426C13.9688 17.7712 13.5777 17.3802 13.3061 16.9092C13.0345 16.4381 12.8921 15.9037 12.8933 15.36V13.1333C12.8935 12.3165 13.2149 11.5326 13.788 10.9506C14.2208 10.5117 14.7744 10.2115 15.3783 10.0882C15.9822 9.96484 16.6092 10.0239 17.1794 10.2579C17.7497 10.492 18.2374 10.8903 18.5806 11.4023C18.9238 11.9144 19.1069 12.5169 19.1066 13.1333V15.36C19.1091 16.1738 18.7938 16.9564 18.228 17.5413C18.0313 17.7327 17.8119 17.8993 17.5746 18.0373C17.368 18.1531 17.196 18.3219 17.0763 18.5262C16.9565 18.7306 16.8934 18.9631 16.8933 19.2V19.8C16.8933 20.1536 17.0338 20.4927 17.2838 20.7428C17.5339 20.9928 17.873 21.1333 18.2266 21.1333C19.052 21.1361 19.8426 21.4662 20.425 22.051C21.0074 22.6359 21.334 23.4279 21.3333 24.2533V25.3333H10.6666ZM28 21.9733H23.52C22.9429 20.6234 21.8757 19.5424 20.5333 18.948C21.3392 17.9258 21.7766 16.6616 21.7746 15.36V13.1333C21.7713 11.6021 21.1632 10.1342 20.0826 9.0493C19.976 8.94396 19.852 8.8693 19.7386 8.77463C19.8836 8.33009 20.1291 7.92494 20.456 7.59063C21.0488 7.01979 21.8394 6.70022 22.6624 6.69873C23.4854 6.69724 24.2771 7.01394 24.872 7.58263C25.449 8.16581 25.7728 8.95292 25.7733 9.7733V12C25.7751 12.5432 25.6335 13.0772 25.3629 13.5483C25.0922 14.0193 24.7021 14.4106 24.232 14.6826C24.0289 14.7999 23.8603 14.9686 23.7433 15.1718C23.6262 15.375 23.5648 15.6055 23.5653 15.84V16.44C23.5653 16.7936 23.7058 17.1327 23.9558 17.3828C24.2059 17.6328 24.545 17.7733 24.8986 17.7733C25.7231 17.7775 26.5123 18.1082 27.0935 18.6929C27.6748 19.2777 28.0007 20.0688 28 20.8933V21.9733Z" fill="#325F6B"/>
</svg>
