<svg width="24" height="24" viewBox="0 0 24 24" fill="none" xmlns="http://www.w3.org/2000/svg">
<path d="M12.5 11V11.5H13H15C15.1326 11.5 15.2598 11.5527 15.3536 11.6464C15.4473 11.7402 15.5 11.8674 15.5 12C15.5 12.1326 15.4473 12.2598 15.3536 12.3536C15.2598 12.4473 15.1326 12.5 15 12.5H13H12.5V13V15C12.5 15.1326 12.4473 15.2598 12.3536 15.3536C12.2598 15.4473 12.1326 15.5 12 15.5C11.8674 15.5 11.7402 15.4473 11.6464 15.3536C11.5527 15.2598 11.5 15.1326 11.5 15V13V12.5H11H9C8.86739 12.5 8.74022 12.4473 8.64645 12.3536C8.55268 12.2598 8.5 12.1326 8.5 12C8.5 11.8674 8.55268 11.7402 8.64645 11.6464C8.74022 11.5527 8.86739 11.5 9 11.5H11H11.5V11V9C11.5 8.86739 11.5527 8.74022 11.6464 8.64645C11.7402 8.55268 11.8674 8.5 12 8.5C12.1326 8.5 12.2598 8.55268 12.3536 8.64645C12.4473 8.74022 12.5 8.86739 12.5 9V11Z" fill="#1A3D5F" stroke="#1A3D5F"/>
<path d="M12.0151 2H12.0001C10.6868 1.99902 9.38628 2.2567 8.17265 2.75834C6.95902 3.25997 5.85607 3.99574 4.92679 4.92363C3.05002 6.79759 1.99455 9.34034 1.99256 11.9925C1.99057 14.6447 3.04223 17.189 4.91619 19.0658C6.79014 20.9425 9.33289 21.998 11.9851 22H12.0001C14.6522 22.002 17.1966 20.9503 19.0733 19.0764C20.9501 17.2024 22.0056 14.6597 22.0076 12.0075C22.0095 9.35534 20.9579 6.81101 19.0839 4.93424C17.21 3.05747 14.6672 2.00199 12.0151 2V2ZM12.0001 20H11.9881C9.86632 19.9984 7.83213 19.154 6.33296 17.6526C4.83379 16.1512 3.99247 14.1157 3.99406 11.994C3.99565 9.87227 4.84003 7.83807 6.34145 6.33891C7.84286 4.83974 9.87832 3.99841 12.0001 4H12.0121C14.1338 4.00159 16.168 4.84597 17.6672 6.34739C19.1663 7.84881 20.0076 9.88427 20.0061 12.006C20.0045 14.1277 19.1601 16.1619 17.6587 17.6611C16.1573 19.1603 14.1218 20.0016 12.0001 20V20Z" fill="#1A3D5F"/>
</svg>
