<svg width="32" height="32" viewBox="0 0 32 32" fill="none" xmlns="http://www.w3.org/2000/svg">
<path d="M11.4342 15.5102L23.016 15.5282C23.1486 15.5282 23.2758 15.5809 23.3696 15.6747C23.4633 15.7685 23.516 15.8956 23.516 16.0282C23.516 16.1608 23.4633 16.288 23.3696 16.3818C23.2758 16.4755 23.1487 16.5282 23.0162 16.5282C23.0161 16.5282 23.0161 16.5282 23.016 16.5282L11.4298 16.5102L10.2234 16.5084L11.0748 17.3631L16.4318 22.7411L16.4317 22.7412L16.4381 22.7474C16.4858 22.7936 16.5238 22.8488 16.5499 22.9098C16.5761 22.9709 16.5897 23.0365 16.5902 23.1029C16.5907 23.1693 16.578 23.2351 16.5527 23.2965C16.5275 23.3579 16.4903 23.4137 16.4433 23.4606C16.3963 23.5074 16.3404 23.5445 16.2789 23.5695C16.2174 23.5946 16.1516 23.6072 16.0852 23.6065C16.0188 23.6058 15.9532 23.5919 15.8923 23.5656C15.8313 23.5394 15.7762 23.5012 15.7301 23.4534L15.7302 23.4533L15.7243 23.4474L8.66627 16.3614L8.66562 16.3607C8.57188 16.267 8.51923 16.1398 8.51923 16.0072C8.51923 15.8748 8.57179 15.7477 8.66538 15.654C8.66546 15.6539 8.66554 15.6538 8.66562 15.6537L15.7435 8.59689C15.8376 8.5075 15.9629 8.45819 16.0928 8.4595C16.2239 8.46082 16.3492 8.51358 16.4418 8.60642C16.5344 8.69926 16.5868 8.82475 16.5877 8.95585C16.5887 9.08576 16.539 9.21088 16.4494 9.30477L11.082 14.6562L10.2272 15.5084L11.4342 15.5102Z" fill="#1A3D5F" stroke="#1A3D5F"/>
</svg>
