<svg width="20" height="20" viewBox="0 0 20 20" fill="none" xmlns="http://www.w3.org/2000/svg">
<path d="M9.99996 13.3332C9.77895 13.3332 9.56698 13.2454 9.4107 13.0891C9.25442 12.9328 9.16663 12.7209 9.16663 12.4998V9.99984C9.16663 9.77882 9.25442 9.56686 9.4107 9.41058C9.56698 9.2543 9.77895 9.1665 9.99996 9.1665V9.1665C10.221 9.1665 10.4329 9.2543 10.5892 9.41058C10.7455 9.56686 10.8333 9.77882 10.8333 9.99984V12.4998C10.8333 12.7209 10.7455 12.9328 10.5892 13.0891C10.4329 13.2454 10.221 13.3332 9.99996 13.3332Z" fill="#564B7D"/>
<path d="M10.0034 8.33317C10.4636 8.33317 10.8367 7.96007 10.8367 7.49984C10.8367 7.0396 10.4636 6.6665 10.0034 6.6665C9.54314 6.6665 9.17004 7.0396 9.17004 7.49984C9.17004 7.96007 9.54314 8.33317 10.0034 8.33317Z" fill="#564B7D"/>
<path d="M10 18.3332H9.9867C7.77657 18.3314 5.65765 17.4517 4.0961 15.8877C2.53455 14.3236 1.65827 12.2033 1.66004 9.99317C1.6618 7.78304 2.54147 5.66412 4.10553 4.10257C5.66958 2.54102 7.7899 1.66474 10 1.66651H10.0125C12.2227 1.66816 14.3416 2.54773 15.9033 4.1117C17.4649 5.67568 18.3413 7.79595 18.3396 10.0061C18.338 12.2162 17.4584 14.3352 15.8944 15.8968C14.3304 17.4584 12.2102 18.3348 10 18.3332ZM10 3.33317C8.23193 3.33185 6.53571 4.03295 5.28453 5.28226C4.03335 6.53156 3.3297 8.22673 3.32837 9.99484C3.32704 11.763 4.02815 13.4592 5.27746 14.7103C6.52676 15.9615 8.22193 16.6652 9.99004 16.6665H10C11.7681 16.6677 13.4643 15.9665 14.7154 14.7171C15.9665 13.4677 16.6701 11.7725 16.6713 10.0044C16.6725 8.23631 15.9713 6.54014 14.7219 5.28904C13.4725 4.03793 11.7773 3.33439 10.0092 3.33317H10Z" fill="#564B7D"/>
</svg>
