<svg width="32" height="32" viewBox="0 0 32 32" fill="none" xmlns="http://www.w3.org/2000/svg">
<path d="M29.3333 20V7.896C29.3326 6.86293 28.9219 5.87238 28.1914 5.14189C27.461 4.4114 26.4704 4.00071 25.4373 4H6.56133C5.5286 4.00141 4.5386 4.41238 3.80847 5.14275C3.07835 5.87313 2.66772 6.86327 2.66667 7.896V20C2.31304 20 1.9739 20.1405 1.72386 20.3905C1.47381 20.6406 1.33333 20.9797 1.33333 21.3333V24C1.33333 25.0609 1.75476 26.0783 2.5049 26.8284C3.25505 27.5786 4.27247 28 5.33333 28H26.6667C27.7275 28 28.7449 27.5786 29.4951 26.8284C30.2452 26.0783 30.6667 25.0609 30.6667 24V21.3333C30.6667 20.9797 30.5262 20.6406 30.2761 20.3905C30.0261 20.1405 29.687 20 29.3333 20ZM5.33333 7.896C5.33333 7.57019 5.46267 7.25771 5.69292 7.0272C5.92318 6.79669 6.23552 6.66702 6.56133 6.66667H25.4373C25.7634 6.66667 26.0761 6.79619 26.3066 7.02673C26.5371 7.25728 26.6667 7.56996 26.6667 7.896V20H5.33333V7.896ZM28 24C28 24.3536 27.8595 24.6928 27.6095 24.9428C27.3594 25.1929 27.0203 25.3333 26.6667 25.3333H5.33333C4.97971 25.3333 4.64057 25.1929 4.39052 24.9428C4.14047 24.6928 4 24.3536 4 24V22.6667H28V24Z" fill="#325F6B"/>
<path d="M8 13.3333C7.64638 13.3333 7.30724 13.1929 7.05719 12.9428C6.80714 12.6928 6.66667 12.3536 6.66667 12V10.6667C6.66667 9.95942 6.94762 9.28115 7.44772 8.78105C7.94781 8.28095 8.62609 8 9.33333 8H10.6667C11.0203 8 11.3594 8.14048 11.6095 8.39052C11.8595 8.64057 12 8.97971 12 9.33333C12 9.68696 11.8595 10.0261 11.6095 10.2761C11.3594 10.5262 11.0203 10.6667 10.6667 10.6667H9.33333V12C9.33333 12.3536 9.19286 12.6928 8.94281 12.9428C8.69276 13.1929 8.35362 13.3333 8 13.3333Z" fill="#325F6B"/>
</svg>
