<svg width="24" height="24" viewBox="0 0 24 24" fill="none" xmlns="http://www.w3.org/2000/svg">
<path d="M19 2C20.6569 2 22 3.34315 22 5C22 6.65685 20.6569 8 19 8V16C20.6569 16 22 17.3431 22 19C22 20.6569 20.6569 22 19 22H5C3.34315 22 2 20.6569 2 19C2 17.3431 3.34315 16 5 16V8C3.34315 8 2 6.65685 2 5C2 3.34315 3.34315 2 5 2H19ZM19 18H5C4.44772 18 4 18.4477 4 19C4 19.5523 4.44772 20 5 20H19C19.5523 20 20 19.5523 20 19C20 18.4477 19.5523 18 19 18ZM17 16V8H13V16H17ZM11 8H7V16H11V8ZM19 4H5C4.44772 4 4 4.44772 4 5C4 5.55228 4.44772 6 5 6H19C19.5523 6 20 5.55228 20 5C20 4.44772 19.5523 4 19 4Z" fill="black" fill-opacity="0.5"/>
</svg>
