<svg width="32" height="32" viewBox="0 0 32 32" fill="none" xmlns="http://www.w3.org/2000/svg">
<path d="M16 27.7751C15.468 27.775 14.9438 27.6465 14.472 27.4005C11.324 25.7511 3.88535 21.1258 2.80002 13.7805C2.6117 12.5499 2.68514 11.2935 3.01552 10.0932C3.34591 8.893 3.92582 7.77597 4.71735 6.81514C5.40873 5.9675 6.2736 5.27774 7.25379 4.79224C8.23399 4.30674 9.30678 4.03677 10.4 4.00047C12.4622 3.94559 14.4667 4.68441 16 6.06447C17.5306 4.67986 19.537 3.94035 21.6 4.00047C22.6923 4.03684 23.7641 4.30647 24.7435 4.79124C25.723 5.27602 26.5874 5.96473 27.2787 6.81114C28.0715 7.77212 28.6524 8.88967 28.9835 10.0907C29.3146 11.2916 29.3884 12.549 29.2 13.7805C28.1134 21.1258 20.6747 25.7511 17.5267 27.3991C17.0557 27.646 16.5318 27.775 16 27.7751V27.7751ZM10.6667 6.66714H10.484C9.76784 6.69288 9.06546 6.87159 8.42406 7.19125C7.78266 7.51092 7.21709 7.96414 6.76535 8.52047C6.21794 9.19495 5.81674 9.97588 5.5872 10.8137C5.35767 11.6515 5.30482 12.5278 5.43202 13.3871C6.36535 19.6938 13.5294 23.8965 15.6987 25.0351C15.7888 25.0831 15.8893 25.1082 15.9914 25.1082C16.0934 25.1082 16.1939 25.0831 16.284 25.0351C18.4574 23.8978 25.6174 19.6951 26.5507 13.3885C26.6779 12.5292 26.625 11.6528 26.3955 10.815C26.166 9.97721 25.7648 9.19628 25.2174 8.5218C24.7674 7.96763 24.2046 7.51562 23.5664 7.19584C22.9282 6.87605 22.2293 6.69582 21.516 6.66714V6.66714C20.7546 6.64525 19.9973 6.78672 19.2952 7.08203C18.593 7.37734 17.9623 7.81963 17.4454 8.37914C17.2556 8.5691 17.0303 8.7198 16.7823 8.82262C16.5343 8.92545 16.2685 8.97837 16 8.97837C15.7315 8.97837 15.4657 8.92545 15.2177 8.82262C14.9697 8.7198 14.7444 8.5691 14.5547 8.37914C14.0595 7.84136 13.4585 7.4117 12.7895 7.1171C12.1204 6.82249 11.3977 6.66931 10.6667 6.66714V6.66714Z" fill="#325F6B"/>
</svg>
