<svg width="32" height="32" viewBox="0 0 32 32" fill="none" xmlns="http://www.w3.org/2000/svg">
<path d="M22.6667 29.3337H9.33335C8.62611 29.3337 7.94783 29.0527 7.44774 28.5526C6.94764 28.0525 6.66669 27.3742 6.66669 26.667V22.667C6.66804 21.3067 7.08491 19.9792 7.86149 18.8624C8.63807 17.7455 9.7373 16.8926 11.012 16.4177C9.93187 15.1996 9.33478 13.6283 9.33335 12.0003V9.33366C9.33335 7.56555 10.0357 5.86986 11.286 4.61961C12.5362 3.36937 14.2319 2.66699 16 2.66699C17.7681 2.66699 19.4638 3.36937 20.7141 4.61961C21.9643 5.86986 22.6667 7.56555 22.6667 9.33366V12.0003C22.6678 13.6282 22.0725 15.2002 20.9934 16.419C22.2669 16.8947 23.3648 17.7478 24.1404 18.8643C24.9159 19.9809 25.3321 21.3075 25.3334 22.667V26.667C25.3334 27.3742 25.0524 28.0525 24.5523 28.5526C24.0522 29.0527 23.3739 29.3337 22.6667 29.3337ZM16 5.33366C15.4744 5.3326 14.9538 5.43535 14.468 5.63599C13.9823 5.83664 13.5409 6.13124 13.1692 6.50288C12.7976 6.87453 12.503 7.3159 12.3024 7.80168C12.1017 8.28746 11.999 8.80808 12 9.33366V12.0003C12.001 12.7016 12.1863 13.3902 12.5373 13.9972C12.8883 14.6043 13.3927 15.1084 14 15.459C14.2027 15.576 14.371 15.7443 14.488 15.947C14.6051 16.1497 14.6667 16.3796 14.6667 16.6137V17.3337C14.6667 17.6873 14.5262 18.0264 14.2762 18.2765C14.0261 18.5265 13.687 18.667 13.3334 18.667C12.2725 18.667 11.2551 19.0884 10.5049 19.8386C9.75478 20.5887 9.33335 21.6061 9.33335 22.667V26.667H22.6667V22.667C22.6667 21.6061 22.2453 20.5887 21.4951 19.8386C20.745 19.0884 19.7276 18.667 18.6667 18.667C18.3131 18.667 17.9739 18.5265 17.7239 18.2765C17.4738 18.0264 17.3334 17.6873 17.3334 17.3337V16.6137C17.3335 16.3782 17.3959 16.1469 17.5145 15.9434C17.633 15.7398 17.8033 15.5713 18.008 15.455C18.3139 15.2763 18.5965 15.0604 18.8494 14.8123C19.5878 14.0628 20.0012 13.0525 20 12.0003V9.33366C20.0011 8.80808 19.8983 8.28746 19.6977 7.80168C19.497 7.3159 19.2024 6.87453 18.8308 6.50288C18.4592 6.13124 18.0178 5.83664 17.532 5.63599C17.0462 5.43535 16.5256 5.3326 16 5.33366V5.33366Z" fill="#325F6B"/>
<path d="M14.6667 20H17.3334L16 21.3333L14.6667 20Z" fill="#325F6B"/>
<path d="M16 21.9997C15.9123 21.9997 15.8254 21.9823 15.7445 21.9487C15.6635 21.9151 15.5899 21.8658 15.528 21.8037L14.1946 20.4703C14.1016 20.377 14.0383 20.2583 14.0128 20.129C13.9872 19.9998 14.0005 19.8658 14.051 19.7441C14.1015 19.6224 14.187 19.5184 14.2965 19.4453C14.4061 19.3721 14.5349 19.333 14.6666 19.333H17.3333C17.4651 19.333 17.5939 19.3721 17.7034 19.4453C17.813 19.5184 17.8984 19.6224 17.9489 19.7441C17.9994 19.8658 18.0127 19.9998 17.9872 20.129C17.9616 20.2583 17.8983 20.377 17.8053 20.4703L16.472 21.8037C16.4101 21.8658 16.3365 21.9151 16.2555 21.9487C16.1745 21.9823 16.0877 21.9997 16 21.9997Z" fill="#325F6B"/>
<path d="M17.3334 24L16 25.3333L14.6667 24L16 20L17.3334 24Z" fill="#325F6B"/>
<path d="M16 25.9998C15.9123 25.9998 15.8254 25.9825 15.7444 25.9488C15.6635 25.9152 15.5899 25.8659 15.528 25.8038L14.1946 24.4705C14.1072 24.3831 14.0458 24.273 14.0173 24.1527C13.9888 24.0324 13.9944 23.9065 14.0333 23.7892L15.3666 19.7892C15.4216 19.6672 15.5106 19.5637 15.6229 19.4911C15.7353 19.4185 15.8662 19.3799 16 19.3799C16.1337 19.3799 16.2647 19.4185 16.377 19.4911C16.4894 19.5637 16.5784 19.6672 16.6333 19.7892L17.9666 23.7892C18.0056 23.9065 18.0111 24.0324 17.9826 24.1527C17.9541 24.273 17.8927 24.3831 17.8053 24.4705L16.472 25.8038C16.4101 25.8659 16.3365 25.9152 16.2555 25.9488C16.1745 25.9825 16.0877 25.9998 16 25.9998ZM15.4293 23.8198L16 24.3905L16.5706 23.8198L16 22.1078L15.4293 23.8198Z" fill="#325F6B"/>
</svg>
