<svg width="12" height="13" viewBox="0 0 12 13" fill="none" xmlns="http://www.w3.org/2000/svg">
<path d="M10.0666 2.4455C9.92796 2.30556 9.76292 2.19453 9.58105 2.11883C9.39918 2.04313 9.2041 2.00427 9.00711 2.0045H8.50711C8.50711 1.87189 8.45443 1.74471 8.36066 1.65095C8.26689 1.55718 8.13971 1.5045 8.00711 1.5045C7.8745 1.5045 7.74732 1.55718 7.65355 1.65095C7.55978 1.74471 7.50711 1.87189 7.50711 2.0045L4.50711 2C4.50711 1.86739 4.45443 1.74021 4.36066 1.64645C4.26689 1.55268 4.13971 1.5 4.00711 1.5V1.5C3.8745 1.5 3.74732 1.55268 3.65355 1.64645C3.55978 1.74021 3.50711 1.86739 3.50711 2V2H3.00711C2.60928 2 2.22775 2.15804 1.94645 2.43934C1.66514 2.72064 1.50711 3.10218 1.50711 3.5V4.491V4.496L1.49561 9.493C1.4956 9.89039 1.6533 10.2715 1.93406 10.5528C2.21483 10.834 2.59571 10.9923 2.99311 10.993L8.99311 11.002C9.39093 11.002 9.77246 10.844 10.0538 10.5627C10.3351 10.2814 10.4931 9.89982 10.4931 9.502L10.5021 3.502C10.5026 3.3059 10.4644 3.11164 10.3897 2.93034C10.3149 2.74904 10.2051 2.58428 10.0666 2.4455V2.4455ZM3.00461 2.9955H3.50461C3.50461 3.12811 3.55728 3.25529 3.65105 3.34905C3.74482 3.44282 3.872 3.4955 4.00461 3.4955C4.13721 3.4955 4.26439 3.44282 4.35816 3.34905C4.45193 3.25529 4.50461 3.12811 4.50461 2.9955L7.50461 3C7.50461 3.13261 7.55728 3.25979 7.65105 3.35355C7.74482 3.44732 7.872 3.5 8.00461 3.5C8.13721 3.5 8.26439 3.44732 8.35816 3.35355C8.45193 3.25979 8.50461 3.13261 8.50461 3H9.00461C9.13721 3 9.26439 3.05268 9.35816 3.14645C9.45193 3.24021 9.50461 3.36739 9.50461 3.5V3.9935L2.50461 3.983V3.4895C2.50618 3.35793 2.55956 3.23229 2.65316 3.13982C2.74675 3.04734 2.87303 2.99549 3.00461 2.9955ZM8.99561 10.0045L2.99561 9.9955C2.863 9.9955 2.73582 9.94282 2.64205 9.84905C2.54828 9.75529 2.49561 9.62811 2.49561 9.4955L2.50011 4.9885L9.50011 5L9.49361 9.506C9.49321 9.638 9.44063 9.76449 9.34734 9.85788C9.25405 9.95127 9.12761 10.004 8.99561 10.0045Z" fill="black" fill-opacity="0.5"/>
</svg>
