<svg width="32" height="32" viewBox="0 0 32 32" fill="none" xmlns="http://www.w3.org/2000/svg">
<path d="M17.3333 7.38933H24.4408L24.4502 7.39454L24.4748 7.40685L24.5001 7.42915C24.5098 7.44958 24.5195 7.46896 24.5292 7.48725L28.0157 15.862C28.0183 15.8681 28.0189 15.8748 28.0176 15.8813C28.0163 15.8878 28.0132 15.8937 28.0085 15.8984C27.9967 15.9101 27.9849 15.9217 27.9731 15.9333L27.5708 14.967L25.6668 10.3937L24.4671 7.51199L23.2666 10.3934L21.3613 14.9667L22.5613 15.4667L21.8851 16.5769C22.6626 17.0506 23.5555 17.3011 24.466 17.3011C25.3765 17.3011 26.2694 17.0505 27.0469 16.5769L27.7097 16.1732C26.8062 16.9393 25.6566 17.3642 24.4633 17.3642C23.1353 17.3642 21.8614 16.8379 20.9205 15.9007C20.9161 15.8961 20.9131 15.8903 20.9118 15.884C20.9106 15.8775 20.9113 15.8708 20.9138 15.8647L20.9147 15.8625L23.6667 9.25588L24.4165 7.456H22.4667H17.3333H16.0333V8.756V20.704V21.3289L16.5214 21.7192L22.6747 26.6406L22.6748 26.6406C22.6802 26.6449 22.6841 26.6508 22.686 26.6575C22.6879 26.6641 22.6877 26.6712 22.6854 26.6777C22.6831 26.6842 22.6789 26.6899 22.6732 26.6939C22.6676 26.6979 22.6609 26.7 22.6539 26.7H22.6533H9.32H9.31939C9.31248 26.7 9.30574 26.6979 9.3001 26.6939C9.29447 26.6899 9.29021 26.6842 9.28792 26.6777C9.28563 26.6712 9.28543 26.6641 9.28733 26.6575C9.28924 26.6508 9.29316 26.6449 9.29856 26.6406L9.2989 26.6404L15.4789 21.695L15.9667 21.3047V20.68V8.756V7.456H14.6667H9.53333H7.585L8.33294 9.25505L11.0796 15.8617L11.0801 15.8629C11.0826 15.869 11.0833 15.8757 11.082 15.8822C11.0807 15.8887 11.0776 15.8946 11.0729 15.8993L11.992 16.8187L11.0739 15.8983C11.0623 15.9098 11.0508 15.9212 11.0392 15.9326L10.6376 14.9673L8.73494 10.394L7.53551 7.51098L6.33465 10.3934L4.42931 14.9667L5.62933 15.4667L4.9528 16.5768C5.73018 17.0505 6.62297 17.3011 7.53333 17.3011C8.44369 17.3011 9.33649 17.0505 10.1139 16.5768L10.7727 16.1752C9.86975 16.94 8.72137 17.3641 7.52933 17.3641C6.20243 17.3641 4.92961 16.8386 3.9892 15.9027C3.98497 15.8981 3.98209 15.8925 3.98091 15.8864C3.97965 15.8799 3.98036 15.8732 3.98293 15.8671L3.98294 15.8671L3.98538 15.8612L7.46271 7.51352L7.46325 7.5127L7.50381 7.4246C7.51121 7.41815 7.51969 7.41066 7.52891 7.40237C7.53117 7.40057 7.53355 7.39891 7.53602 7.39741L7.54058 7.39571L7.55634 7.38933H14.6667H15.9667V6.08933V5.33333C15.9667 5.32449 15.9702 5.31601 15.9764 5.30976C15.9827 5.30351 15.9912 5.3 16 5.3C16.0088 5.3 16.0173 5.30351 16.0236 5.30976C16.0298 5.31601 16.0333 5.32449 16.0333 5.33333V6.08933V7.38933H17.3333ZM12.3082 24.318L9.4123 26.6333H13.12H18.852H22.5584L19.664 24.3182L16.7987 22.0262L15.9869 21.3767L15.1748 22.026L12.3082 24.318Z" fill="#393A3D" stroke="#325F6B" stroke-width="2.6"/>
</svg>
