<svg width="32" height="32" viewBox="0 0 32 32" fill="none" xmlns="http://www.w3.org/2000/svg">
<path d="M30.6666 3.99974C29.3898 4.90037 27.9761 5.58922 26.48 6.03974C25.677 5.11642 24.6098 4.46199 23.4227 4.16497C22.2356 3.86795 20.986 3.94266 19.8428 4.37901C18.6995 4.81535 17.7179 5.59227 17.0306 6.60469C16.3433 7.61711 15.9836 8.81618 16 10.0397V11.3731C13.6568 11.4338 11.335 10.9142 9.24132 9.86033C7.14764 8.80651 5.34707 7.25125 3.99998 5.33307C3.99998 5.33307 -1.33335 17.3331 10.6666 22.6664C7.92068 24.5304 4.64952 25.465 1.33331 25.3331C13.3333 31.9997 28 25.3331 28 9.99974C27.9988 9.62834 27.963 9.25786 27.8933 8.89307C29.2541 7.55106 30.2144 5.85669 30.6666 3.99974Z" stroke="#325F6B" stroke-width="2.6" stroke-linecap="round" stroke-linejoin="round"/>
</svg>
