<svg width="32" height="32" viewBox="0 0 32 32" fill="none" xmlns="http://www.w3.org/2000/svg">
<path d="M30.0854 14.1332C28.9385 13.3385 27.6375 12.7934 26.2667 12.5332C26.0553 11.0529 25.5798 9.62266 24.8627 8.31054C24.7512 8.10869 24.5893 7.9392 24.3928 7.81861C24.1962 7.69803 23.9718 7.63047 23.7414 7.62254C22.3879 7.5751 21.0397 7.81456 19.7854 8.3252C18.944 7.19781 17.8916 6.2446 16.6867 5.51854C16.4793 5.39395 16.2419 5.32812 16 5.32812C15.7581 5.32812 15.5207 5.39395 15.3133 5.51854C14.109 6.24406 13.0556 7.1947 12.2107 8.31854C10.956 7.8142 9.61033 7.5754 8.25868 7.6172C8.02824 7.62514 7.80379 7.69269 7.60726 7.81328C7.41072 7.93386 7.24881 8.10336 7.13735 8.30521C6.41945 9.61888 5.94387 11.051 5.73335 12.5332C4.36233 12.7928 3.06127 13.338 1.91468 14.1332C1.74023 14.2523 1.59655 14.411 1.49548 14.5965C1.39441 14.7819 1.33884 14.9887 1.33335 15.1999C1.23133 17.1471 1.62897 19.0881 2.48847 20.8384C3.34796 22.5886 4.64077 24.09 6.24402 25.1999C7.72724 26.1579 9.45561 26.6672 11.2214 26.6665C12.9034 26.6474 14.5511 26.1877 16 25.3332C17.449 26.1877 19.0966 26.6474 20.7787 26.6665C22.5431 26.6665 24.2699 26.1572 25.752 25.1999C27.356 24.0905 28.6496 22.5893 29.5098 20.839C30.37 19.0887 30.7683 17.1475 30.6667 15.1999C30.6612 14.9887 30.6056 14.7819 30.5046 14.5965C30.4035 14.411 30.2598 14.2523 30.0854 14.1332ZM22.8787 10.3079C23.1814 10.9913 23.4051 11.707 23.5454 12.4412C22.9498 12.5085 22.3625 12.6349 21.792 12.8185C21.6431 12.0878 21.4234 11.3733 21.136 10.6852C21.6985 10.4858 22.2841 10.359 22.8787 10.3079V10.3079ZM16 8.26654C17.0189 9.05001 17.8514 10.0496 18.4377 11.1933C19.024 12.3371 19.3495 13.5966 19.3907 14.8812C19.4022 14.9959 19.4058 15.1113 19.4013 15.2265C19.4097 16.571 19.1071 17.8992 18.517 19.1073C17.927 20.3153 17.0655 21.3706 16 22.1905C14.935 21.371 14.0739 20.3164 13.4839 19.109C12.8939 17.9017 12.5909 16.5743 12.5987 15.2305C12.5948 15.076 12.6019 14.9214 12.62 14.7679C12.6692 13.502 12.9977 12.2627 13.5821 11.1388C14.1664 10.0148 14.9921 9.03396 16 8.26654V8.26654ZM10.856 10.6665C10.5663 11.3541 10.3456 12.0687 10.1973 12.7999C9.62937 12.6219 9.04521 12.5004 8.45335 12.4372C8.59364 11.703 8.81731 10.9873 9.12002 10.3039C9.71198 10.353 10.2953 10.4771 10.856 10.6732V10.6665ZM7.68802 22.9492C6.56252 22.1622 5.64135 21.1177 5.00124 19.9026C4.36113 18.6876 4.0206 17.3372 4.00802 15.9639C4.89767 15.4362 5.89803 15.123 6.92978 15.0491C7.96153 14.9753 8.99629 15.1429 9.95202 15.5385C9.98913 17.0477 10.3251 18.5345 10.9405 19.9129C11.5559 21.2913 12.4386 22.5341 13.5374 23.5692C12.5812 23.9273 11.5548 24.0578 10.5394 23.9501C9.52412 23.8425 8.54784 23.4998 7.68802 22.9492V22.9492ZM24.3107 22.9492C23.4513 23.5002 22.4752 23.8431 21.46 23.9508C20.4448 24.0584 19.4185 23.9277 18.4627 23.5692C19.5615 22.5341 20.4441 21.2913 21.0595 19.9129C21.6749 18.5345 22.0109 17.0477 22.048 15.5385C23.0037 15.1429 24.0385 14.9753 25.0703 15.0491C26.102 15.123 27.1024 15.4362 27.992 15.9639C27.9796 17.3373 27.639 18.688 26.9986 19.9031C26.3583 21.1182 25.4367 22.1626 24.3107 22.9492V22.9492Z" fill="#325F6B"/>
</svg>
