<svg width="32" height="32" viewBox="0 0 32 32" fill="none" xmlns="http://www.w3.org/2000/svg">
<path d="M29.3414 10.6852C29.3415 10.5158 29.3094 10.3479 29.2467 10.1906L26.5907 3.52389C26.4921 3.27623 26.3214 3.06382 26.1009 2.91408C25.8803 2.76435 25.6199 2.68417 25.3534 2.68389L6.68669 2.65723C6.42057 2.65718 6.16052 2.73677 5.94001 2.88576C5.71951 3.03475 5.54862 3.24631 5.44936 3.49323L2.77203 10.1599C2.70837 10.317 2.67576 10.485 2.67603 10.6546V11.9879C2.67964 13.2764 3.1538 14.5191 4.00936 15.4826L3.99069 27.9892C3.99069 28.3428 4.13117 28.682 4.38122 28.932C4.63127 29.1821 4.97041 29.3226 5.32403 29.3226L13.324 29.3346C13.6776 29.3346 14.0168 29.1941 14.2668 28.944C14.5169 28.694 14.6574 28.3548 14.6574 28.0012L14.6667 22.6679C14.6667 22.3143 14.8072 21.9751 15.0572 21.7251C15.3073 21.475 15.6464 21.3346 16 21.3346V21.3346C16.3536 21.3346 16.6928 21.475 16.9428 21.7251C17.1929 21.9751 17.3334 22.3143 17.3334 22.6679L17.324 28.0012C17.324 28.3548 17.4645 28.694 17.7146 28.944C17.9646 29.1941 18.3037 29.3346 18.6574 29.3346L26.6574 29.3466C27.011 29.3466 27.3501 29.2061 27.6002 28.956C27.8502 28.706 27.9907 28.3668 27.9907 28.0132L28 15.5079C28.8545 14.5459 29.3286 13.3052 29.3334 12.0186L29.3414 10.6852ZM21.3414 11.9906L26.6667 11.9999V12.0159C26.6667 12.7231 26.3857 13.4014 25.8856 13.9015C25.3855 14.4016 24.7073 14.6826 24 14.6826C23.2928 14.6826 22.6145 14.4016 22.1144 13.9015C21.6143 13.4014 21.3334 12.7231 21.3334 12.0159V11.9999L21.3414 11.9906ZM13.3414 11.9772L18.6747 11.9866L18.6667 11.9999C18.6667 12.7071 18.3857 13.3854 17.8856 13.8855C17.3855 14.3856 16.7073 14.6666 16 14.6666C15.2928 14.6666 14.6145 14.3856 14.1144 13.8855C13.6143 13.3854 13.3334 12.7071 13.3334 11.9999L13.3414 11.9772ZM6.11736 13.8666C5.86879 13.6201 5.67152 13.3268 5.53695 13.0037C5.40238 12.6805 5.33319 12.3339 5.33336 11.9839V11.9639L10.6667 11.9732V11.9919C10.6667 12.6991 10.3857 13.3774 9.88565 13.8775C9.38555 14.3776 8.70727 14.6586 8.00003 14.6586C7.64939 14.6579 7.30238 14.5876 6.97917 14.4516C6.65597 14.3156 6.36302 14.1168 6.11736 13.8666V13.8666ZM7.58403 5.31723L24.4454 5.34123L26.0334 9.33323L5.98669 9.29856L7.58403 5.31723ZM19.984 26.6666L19.9907 22.6666C19.9907 21.6057 19.5693 20.5883 18.8191 19.8381C18.069 19.088 17.0516 18.6666 15.9907 18.6666V18.6666C14.9298 18.6666 13.9124 19.088 13.1623 19.8381C12.4121 20.5883 11.9907 21.6057 11.9907 22.6666L11.984 26.6666L6.65069 26.6572L6.66669 17.1306C7.10134 17.25 7.54933 17.314 8.00003 17.3212H8.00936C8.70862 17.3232 9.40135 17.1867 10.0476 16.9197C10.6938 16.6526 11.2808 16.2603 11.7747 15.7652C11.8534 15.6852 11.9294 15.6052 12.0027 15.5212C12.0774 15.6052 12.1534 15.6852 12.232 15.7652C12.725 16.263 13.312 16.6579 13.9588 16.9271C14.6056 17.1962 15.2994 17.3343 16 17.3332H16.0094C16.7086 17.3352 17.4013 17.1987 18.0476 16.9317C18.6938 16.6646 19.2808 16.2723 19.7747 15.7772C19.8547 15.6972 19.9307 15.6159 20.0054 15.5319C20.5047 16.1013 21.1198 16.5576 21.8096 16.8703C22.4994 17.1831 23.248 17.345 24.0054 17.3452V17.3452C24.456 17.3404 24.9041 17.2776 25.3387 17.1586L25.324 26.6799L19.984 26.6666Z" fill="#325F6B"/>
</svg>
