<svg width="16" height="16" viewBox="0 0 16 16" fill="none" xmlns="http://www.w3.org/2000/svg">
<g opacity="0.6">
<path d="M8.01606 5.32129H8.01139C7.30415 5.32129 6.62587 5.60224 6.12578 6.10234C5.62568 6.60243 5.34473 7.28071 5.34473 7.98796C5.34473 8.6952 5.62568 9.37348 6.12578 9.87357C6.62587 10.3737 7.30415 10.6546 8.01139 10.6546V10.6546C8.71864 10.6552 9.39716 10.3749 9.89769 9.87522C10.3982 9.37556 10.6798 8.69753 10.6804 7.99029C10.681 7.28305 10.4007 6.60452 9.90099 6.10399C9.40134 5.60345 8.7233 5.32191 8.01606 5.32129V5.32129ZM8.01206 9.32129C7.74835 9.32097 7.49065 9.24245 7.27156 9.09567C7.05247 8.94889 6.88182 8.74044 6.7812 8.49668C6.68059 8.25291 6.65452 7.98478 6.70629 7.7262C6.75806 7.46762 6.88535 7.23019 7.07206 7.04396C7.1954 6.92 7.34211 6.82176 7.5037 6.75493C7.66529 6.6881 7.83853 6.654 8.01339 6.65462V6.65462C8.36702 6.65462 8.70615 6.7951 8.9562 7.04515C9.20625 7.29519 9.34673 7.63433 9.34673 7.98796C9.34673 8.34158 9.20625 8.68072 8.9562 8.93076C8.70615 9.18081 8.36702 9.32129 8.01339 9.32129H8.01206Z" fill="#1A3D5F"/>
<path d="M13.6292 8.93337L13.2899 8.73671C13.3623 8.24737 13.3623 7.75004 13.2899 7.26071L13.6305 7.06537C13.9366 6.88826 14.16 6.59708 14.2519 6.25558C14.3437 5.91409 14.2965 5.55012 14.1205 5.24337L13.4539 4.08804C13.277 3.7821 12.9862 3.55865 12.645 3.46658C12.3038 3.3745 11.94 3.42129 11.6332 3.59671L11.2919 3.79337C10.9024 3.48857 10.4728 3.23888 10.0152 3.05137V2.65804C10.0152 2.30442 9.87474 1.96528 9.62469 1.71523C9.37464 1.46518 9.0355 1.32471 8.68188 1.32471H7.34855C6.99492 1.32471 6.65579 1.46518 6.40574 1.71523C6.15569 1.96528 6.01521 2.30442 6.01521 2.65804V3.05804C5.55879 3.24263 5.13007 3.48941 4.74121 3.79137L4.39521 3.59137C4.09087 3.41477 3.72905 3.36563 3.38863 3.45467C3.04821 3.54371 2.75678 3.76371 2.57788 4.06671L1.91121 5.22004C1.73398 5.52602 1.68554 5.88986 1.77656 6.23155C1.86757 6.57324 2.09059 6.86478 2.39655 7.04204L2.73588 7.23871C2.69978 7.48329 2.68129 7.73014 2.68055 7.97737C2.68059 8.22542 2.69819 8.47315 2.73321 8.71871L2.39388 8.91404C2.0874 9.09007 1.86335 9.38058 1.77097 9.72173C1.67858 10.0629 1.72543 10.4268 1.90121 10.7334L2.56788 11.8887C2.65515 12.0405 2.77148 12.1737 2.91021 12.2805C3.04895 12.3874 3.20737 12.4659 3.37644 12.5115C3.54551 12.5571 3.72191 12.569 3.89557 12.5464C4.06923 12.5239 4.23674 12.4673 4.38855 12.38L4.72988 12.1834C5.11928 12.4884 5.54888 12.7383 6.00655 12.926V13.3167C6.00655 13.6703 6.14702 14.0095 6.39707 14.2595C6.64712 14.5096 6.98626 14.65 7.33988 14.65H8.67321C9.02684 14.65 9.36597 14.5096 9.61602 14.2595C9.86607 14.0095 10.0065 13.6703 10.0065 13.3167V12.9334C10.4649 12.7477 10.8952 12.4993 11.2852 12.1954L11.6259 12.3954C11.9319 12.5726 12.2957 12.621 12.6374 12.53C12.9791 12.439 13.2706 12.216 13.4479 11.91L14.1145 10.7567C14.2025 10.6051 14.2597 10.4377 14.283 10.264C14.3062 10.0903 14.2949 9.91378 14.2498 9.74443C14.2048 9.57509 14.1268 9.4163 14.0203 9.27713C13.9138 9.13796 13.7809 9.02115 13.6292 8.93337V8.93337ZM11.9005 7.06671C12.0507 7.67514 12.0507 8.31094 11.9005 8.91937C11.8669 9.0592 11.8793 9.20616 11.936 9.33832C11.9928 9.47049 12.0907 9.58077 12.2152 9.65271L12.9632 10.0874L12.2965 11.24L11.5479 10.8067C11.4237 10.7348 11.2795 10.7049 11.137 10.7215C10.9944 10.7381 10.861 10.8002 10.7565 10.8987C10.3024 11.3272 9.75455 11.6438 9.15655 11.8234C9.01889 11.8641 8.89808 11.9483 8.81208 12.0632C8.72607 12.1782 8.67948 12.3178 8.67921 12.4614V13.324H7.34588V12.462C7.34618 12.3184 7.30007 12.1785 7.21442 12.0632C7.12876 11.9478 7.00815 11.8633 6.87055 11.822C6.27177 11.6416 5.72373 11.323 5.27055 10.892C5.16606 10.7936 5.03272 10.7312 4.89015 10.7142C4.74758 10.6971 4.6033 10.7263 4.47855 10.7974L3.72855 11.2294L3.06188 10.074L3.81188 9.64271C3.93678 9.57106 4.03512 9.46091 4.0922 9.32872C4.14929 9.19653 4.16204 9.04941 4.12855 8.90937C4.05522 8.6066 4.01785 8.29623 4.01721 7.98471C4.01923 7.67289 4.05748 7.36236 4.13121 7.05937C4.16488 6.91955 4.15243 6.77259 4.09572 6.64043C4.03901 6.50826 3.94108 6.39798 3.81655 6.32604L3.06788 5.89271L3.73455 4.73871L4.48388 5.17337C4.49655 5.18071 4.51121 5.18004 4.52388 5.18671C4.56369 5.20486 4.60523 5.21893 4.64788 5.22871C4.6912 5.24239 4.73593 5.25112 4.78121 5.25471C4.79455 5.25471 4.80721 5.26271 4.82055 5.26271C4.85109 5.25909 4.88138 5.25353 4.91121 5.24604C4.94955 5.24228 4.98747 5.23514 5.02455 5.22471C5.06247 5.20874 5.09884 5.18933 5.13321 5.16671C5.17012 5.14783 5.20517 5.12551 5.23788 5.10004C5.24788 5.09137 5.26055 5.08871 5.26988 5.07937C5.72376 4.65023 6.27167 4.33312 6.86988 4.15337C6.88111 4.14826 6.89202 4.14247 6.90255 4.13604C6.94556 4.1184 6.98647 4.09604 7.02455 4.06937C7.06009 4.05065 7.0936 4.02831 7.12455 4.00271C7.15484 3.97282 7.18209 3.93999 7.20588 3.90471C7.23123 3.87215 7.25355 3.83734 7.27255 3.80071C7.28816 3.76342 7.30043 3.72483 7.30921 3.68537C7.3228 3.64197 7.33196 3.59729 7.33655 3.55204C7.33655 3.54004 7.34388 3.52937 7.34388 3.51671V2.65404H8.67721V3.51671C8.67692 3.66036 8.72303 3.80026 8.80868 3.91558C8.89433 4.03091 9.01494 4.11548 9.15255 4.15671C9.75086 4.33826 10.2987 4.65667 10.7525 5.08671C10.8567 5.18535 10.9899 5.24778 11.1323 5.26471C11.2747 5.28165 11.4188 5.25219 11.5432 5.18071L12.2939 4.74937L12.9605 5.90471L12.2105 6.33604C12.0874 6.40852 11.9908 6.51866 11.935 6.65021C11.8791 6.78177 11.8671 6.92778 11.9005 7.06671Z" fill="#1A3D5F"/>
</g>
</svg>
