<svg width="32" height="32" viewBox="0 0 32 32" fill="none" xmlns="http://www.w3.org/2000/svg">
<path d="M28 18.6667H27.3334L25.3334 16V7.56C25.3323 6.61615 24.9569 5.71127 24.2895 5.04387C23.6221 4.37647 22.7172 4.00106 21.7734 4H6.22669C5.28284 4.00106 4.37796 4.37647 3.71056 5.04387C3.04316 5.71127 2.66775 6.61615 2.66669 7.56V17.7733C2.66775 18.7172 3.04316 19.6221 3.71056 20.2895C4.37796 20.9569 5.28284 21.3323 6.22669 21.3333H7.17602L9.33335 25.648C9.88368 26.758 10.734 27.6916 11.7879 28.343C12.8418 28.9944 14.0571 29.3375 15.296 29.3333H28C28.7073 29.3333 29.3855 29.0524 29.8856 28.5523C30.3857 28.0522 30.6667 27.3739 30.6667 26.6667V21.3333C30.6667 20.6261 30.3857 19.9478 29.8856 19.4477C29.3855 18.9476 28.7073 18.6667 28 18.6667ZM5.33335 17.7733V7.56C5.33371 7.32318 5.42794 7.09616 5.59539 6.92871C5.76285 6.76125 5.98987 6.66702 6.22669 6.66667H21.7734C22.0102 6.66702 22.2372 6.76125 22.4046 6.92871C22.5721 7.09616 22.6663 7.32318 22.6667 7.56V13.9053C21.8269 13.5324 20.9189 13.3376 20 13.3333H17.956C17.9841 13.1122 17.9988 12.8896 18 12.6667C18.0178 11.5099 17.6369 10.3823 16.9214 9.47333C16.5841 9.01791 16.145 8.64774 15.639 8.39247C15.1331 8.1372 14.5744 8.0039 14.0077 8.00326C13.441 8.00261 12.882 8.13462 12.3755 8.38874C11.869 8.64285 11.429 9.01201 11.0907 9.46667C10.3696 10.376 9.98442 11.5063 10 12.6667C9.9808 13.4647 10.1596 14.255 10.5205 14.967C10.8814 15.6789 11.4131 16.2904 12.068 16.7467C11.9982 17.1598 11.9937 17.5814 12.0547 17.996C12.0923 18.2232 12.1513 18.4465 12.2307 18.6627H6.22669C5.99056 18.6623 5.76414 18.5686 5.5968 18.402C5.42946 18.2354 5.33476 18.0095 5.33335 17.7733V17.7733ZM13.3507 14.3653C13.1237 14.1461 12.9455 13.8816 12.8276 13.5889C12.7098 13.2962 12.6549 12.982 12.6667 12.6667C12.6525 12.1162 12.827 11.5775 13.1614 11.14C13.2583 11.0048 13.3835 10.8924 13.5284 10.8107C13.6732 10.7289 13.8342 10.6798 14 10.6667C14.1689 10.6809 14.3326 10.7319 14.4795 10.8162C14.6265 10.9005 14.7532 11.0161 14.8507 11.1547C15.1784 11.5893 15.3486 12.1225 15.3334 12.6667C15.3311 12.9207 15.2943 13.1732 15.224 13.4173C14.5258 13.5595 13.8787 13.8869 13.3507 14.3653V14.3653ZM28 26.6667H15.296C14.5528 26.6691 13.8237 26.4633 13.1914 26.0726C12.5591 25.6819 12.049 25.1218 11.7187 24.456L10.1574 21.3333H18.8134C19.167 21.3333 19.5061 21.1929 19.7562 20.9428C20.0062 20.6928 20.1467 20.3536 20.1467 20C20.1467 19.6464 20.0062 19.3072 19.7562 19.0572C19.5061 18.8071 19.167 18.6667 18.8134 18.6667H16.1467C15.8146 18.6786 15.4885 18.5759 15.2231 18.3758C14.9578 18.1758 14.7693 17.8906 14.6894 17.568C14.6551 17.3762 14.6632 17.1793 14.7132 16.991C14.7633 16.8027 14.8539 16.6277 14.9789 16.4782C15.1038 16.3287 15.26 16.2085 15.4364 16.1258C15.6128 16.0432 15.8052 16.0003 16 16H20C20.6207 16.0014 21.2327 16.1467 21.7879 16.4243C22.3431 16.7018 22.8264 17.1043 23.2 17.6L25.6 20.8C25.7242 20.9656 25.8853 21.1 26.0704 21.1926C26.2555 21.2851 26.4597 21.3333 26.6667 21.3333H28V26.6667Z" fill="#325F6B"/>
</svg>
