<svg width="32" height="32" viewBox="0 0 32 32" fill="none" xmlns="http://www.w3.org/2000/svg">
<path d="M10 13.3337H6C5.11595 13.3337 4.2681 12.9825 3.64298 12.3573C3.01786 11.7322 2.66667 10.8844 2.66667 10.0003V6.00033C2.66667 5.11627 3.01786 4.26842 3.64298 3.6433C4.2681 3.01818 5.11595 2.66699 6 2.66699H10C10.8841 2.66699 11.7319 3.01818 12.357 3.6433C12.9821 4.26842 13.3333 5.11627 13.3333 6.00033V10.0003C13.3333 10.8844 12.9821 11.7322 12.357 12.3573C11.7319 12.9825 10.8841 13.3337 10 13.3337ZM6 5.33366C5.82319 5.33366 5.65362 5.4039 5.5286 5.52892C5.40357 5.65395 5.33333 5.82351 5.33333 6.00033V10.0003C5.33333 10.1771 5.40357 10.3467 5.5286 10.4717C5.65362 10.5968 5.82319 10.667 6 10.667H10C10.1768 10.667 10.3464 10.5968 10.4714 10.4717C10.5964 10.3467 10.6667 10.1771 10.6667 10.0003V6.00033C10.6667 5.82351 10.5964 5.65395 10.4714 5.52892C10.3464 5.4039 10.1768 5.33366 10 5.33366H6Z" fill="#325F6B"/>
<path d="M10 29.3337H6C5.11595 29.3337 4.2681 28.9825 3.64298 28.3573C3.01786 27.7322 2.66667 26.8844 2.66667 26.0003V18.0003C2.66667 17.1163 3.01786 16.2684 3.64298 15.6433C4.2681 15.0182 5.11595 14.667 6 14.667H10C10.8841 14.667 11.7319 15.0182 12.357 15.6433C12.9821 16.2684 13.3333 17.1163 13.3333 18.0003V26.0003C13.3333 26.8844 12.9821 27.7322 12.357 28.3573C11.7319 28.9825 10.8841 29.3337 10 29.3337ZM6 17.3337C5.82319 17.3337 5.65362 17.4039 5.5286 17.5289C5.40357 17.6539 5.33333 17.8235 5.33333 18.0003V26.0003C5.33333 26.1771 5.40357 26.3467 5.5286 26.4717C5.65362 26.5968 5.82319 26.667 6 26.667H10C10.1768 26.667 10.3464 26.5968 10.4714 26.4717C10.5964 26.3467 10.6667 26.1771 10.6667 26.0003V18.0003C10.6667 17.8235 10.5964 17.6539 10.4714 17.5289C10.3464 17.4039 10.1768 17.3337 10 17.3337H6Z" fill="#325F6B"/>
<path d="M26 29.3337H18C17.1159 29.3337 16.2681 28.9825 15.643 28.3573C15.0179 27.7322 14.6667 26.8844 14.6667 26.0003V22.0003C14.6667 21.1163 15.0179 20.2684 15.643 19.6433C16.2681 19.0182 17.1159 18.667 18 18.667H26C26.8841 18.667 27.7319 19.0182 28.357 19.6433C28.9821 20.2684 29.3333 21.1163 29.3333 22.0003V26.0003C29.3333 26.8844 28.9821 27.7322 28.357 28.3573C27.7319 28.9825 26.8841 29.3337 26 29.3337ZM18 21.3337C17.8232 21.3337 17.6536 21.4039 17.5286 21.5289C17.4036 21.6539 17.3333 21.8235 17.3333 22.0003V26.0003C17.3333 26.1771 17.4036 26.3467 17.5286 26.4717C17.6536 26.5968 17.8232 26.667 18 26.667H26C26.1768 26.667 26.3464 26.5968 26.4714 26.4717C26.5964 26.3467 26.6667 26.1771 26.6667 26.0003V22.0003C26.6667 21.8235 26.5964 21.6539 26.4714 21.5289C26.3464 21.4039 26.1768 21.3337 26 21.3337H18Z" fill="#325F6B"/>
<path d="M26 17.3337H18C17.1159 17.3337 16.2681 16.9825 15.643 16.3573C15.0179 15.7322 14.6667 14.8844 14.6667 14.0003V6.00033C14.6667 5.11627 15.0179 4.26842 15.643 3.6433C16.2681 3.01818 17.1159 2.66699 18 2.66699H26C26.8841 2.66699 27.7319 3.01818 28.357 3.6433C28.9821 4.26842 29.3333 5.11627 29.3333 6.00033V14.0003C29.3333 14.8844 28.9821 15.7322 28.357 16.3573C27.7319 16.9825 26.8841 17.3337 26 17.3337ZM18 5.33366C17.8232 5.33366 17.6536 5.4039 17.5286 5.52892C17.4036 5.65395 17.3333 5.82351 17.3333 6.00033V14.0003C17.3333 14.1771 17.4036 14.3467 17.5286 14.4717C17.6536 14.5968 17.8232 14.667 18 14.667H26C26.1768 14.667 26.3464 14.5968 26.4714 14.4717C26.5964 14.3467 26.6667 14.1771 26.6667 14.0003V6.00033C26.6667 5.82351 26.5964 5.65395 26.4714 5.52892C26.3464 5.4039 26.1768 5.33366 26 5.33366H18Z" fill="#325F6B"/>
</svg>
