<svg width="32" height="32" viewBox="0 0 32 32" fill="none" xmlns="http://www.w3.org/2000/svg">
<path d="M24 10.6663H22.1067L17.1574 1.99968C17.0401 1.7966 16.8714 1.62803 16.6682 1.51098C16.465 1.39394 16.2345 1.33255 16 1.33301H12C11.7938 1.33316 11.5904 1.38114 11.4059 1.47317C11.2214 1.5652 11.0607 1.69878 10.9365 1.86341C10.8124 2.02803 10.7281 2.21921 10.6903 2.42193C10.6525 2.62464 10.6622 2.83336 10.7187 3.03168L12.8987 10.6663H10.2947L9.26535 7.57701C9.17666 7.31165 9.00674 7.08092 8.77965 6.91748C8.55256 6.75404 8.27981 6.66618 8.00002 6.66634H4.00002C3.6464 6.66634 3.30726 6.80682 3.05721 7.05687C2.80716 7.30692 2.66669 7.64606 2.66669 7.99968V17.333C2.66669 18.3939 3.08811 19.4113 3.83826 20.1614C4.58841 20.9116 5.60582 21.333 6.66669 21.333H12.8987L10.7187 28.9663C10.6619 29.1647 10.652 29.3736 10.6897 29.5765C10.7274 29.7794 10.8116 29.9708 10.9359 30.1355C11.0601 30.3003 11.2208 30.434 11.4055 30.5262C11.5901 30.6183 11.7937 30.6663 12 30.6663H16C16.2345 30.6668 16.465 30.6054 16.6682 30.4884C16.8714 30.3713 17.0401 30.2028 17.1574 29.9997L22.1067 21.333H29.3334C29.687 21.333 30.0261 21.1925 30.2762 20.9425C30.5262 20.6924 30.6667 20.3533 30.6667 19.9997V17.333C30.6646 15.5656 29.9615 13.8711 28.7117 12.6213C27.4619 11.3715 25.7675 10.6685 24 10.6663V10.6663ZM13.768 3.99968H15.2267L19.036 10.6663H15.672L13.768 3.99968ZM28 18.6663H21.3334C21.0989 18.6659 20.8684 18.7273 20.6652 18.8443C20.462 18.9614 20.2933 19.1299 20.176 19.333L15.2267 27.9997H13.768L15.948 20.365C16.0045 20.1667 16.0143 19.958 15.9765 19.7553C15.9387 19.5525 15.8544 19.3614 15.7302 19.1967C15.606 19.0321 15.4453 18.8985 15.2608 18.8065C15.0763 18.7145 14.8729 18.6665 14.6667 18.6663H6.66669C6.31307 18.6663 5.97393 18.5259 5.72388 18.2758C5.47383 18.0258 5.33335 17.6866 5.33335 17.333V9.33301H7.03869L8.06802 12.421C8.15649 12.6866 8.32631 12.9176 8.55342 13.0813C8.78053 13.245 9.0534 13.3331 9.33335 13.333H24C24.5594 13.3348 25.1121 13.4544 25.6221 13.6842C26.1322 13.9139 26.588 14.2486 26.96 14.6663H25.3334C24.9797 14.6663 24.6406 14.8068 24.3905 15.0569C24.1405 15.3069 24 15.6461 24 15.9997C24 16.3533 24.1405 16.6924 24.3905 16.9425C24.6406 17.1925 24.9797 17.333 25.3334 17.333H28V18.6663Z" fill="#325F6B"/>
<path d="M20 17.3337C20.7364 17.3337 21.3334 16.7367 21.3334 16.0003C21.3334 15.2639 20.7364 14.667 20 14.667C19.2636 14.667 18.6667 15.2639 18.6667 16.0003C18.6667 16.7367 19.2636 17.3337 20 17.3337Z" fill="#325F6B"/>
<path d="M14.6666 17.3337C15.403 17.3337 16 16.7367 16 16.0003C16 15.2639 15.403 14.667 14.6666 14.667C13.9303 14.667 13.3333 15.2639 13.3333 16.0003C13.3333 16.7367 13.9303 17.3337 14.6666 17.3337Z" fill="#325F6B"/>
<path d="M9.33333 17.3337C10.0697 17.3337 10.6667 16.7367 10.6667 16.0003C10.6667 15.2639 10.0697 14.667 9.33333 14.667C8.59695 14.667 8 15.2639 8 16.0003C8 16.7367 8.59695 17.3337 9.33333 17.3337Z" fill="#325F6B"/>
</svg>
