<svg width="24" height="24" viewBox="0 0 24 24" fill="none" xmlns="http://www.w3.org/2000/svg">
<path d="M20.5 9.99965C20.8978 9.99965 21.2794 9.84161 21.5607 9.56031C21.842 9.279 22 8.89747 22 8.49965V6.32465C22 6.03442 21.9159 5.75042 21.7577 5.50707C21.5996 5.26372 21.3742 5.07148 21.109 4.95364L12.609 1.17464C12.4175 1.08976 12.2104 1.0459 12.001 1.0459C11.7916 1.0459 11.5845 1.08976 11.393 1.17464L2.893 4.95165C2.62709 5.06932 2.40111 5.26174 2.24256 5.5055C2.08402 5.74927 1.99975 6.03386 2 6.32465V8.49965C2 8.89747 2.15804 9.279 2.43934 9.56031C2.72065 9.84161 3.10218 9.99965 3.5 9.99965H4V16.9996H3.5C3.10218 16.9996 2.72065 17.1577 2.43934 17.439C2.15804 17.7203 2 18.1018 2 18.4996V20.4996C2 20.8975 2.15804 21.279 2.43934 21.5603C2.72065 21.8416 3.10218 21.9996 3.5 21.9996H20.5C20.8978 21.9996 21.2794 21.8416 21.5607 21.5603C21.842 21.279 22 20.8975 22 20.4996V18.4996C22 18.1018 21.842 17.7203 21.5607 17.439C21.2794 17.1577 20.8978 16.9996 20.5 16.9996H20V9.99965H20.5ZM4 6.64964L12 3.09365L20 6.64964V7.99965H4V6.64964ZM9 16.9996V9.99965H15V16.9996H9ZM6 9.99965H7V16.9996H6V9.99965ZM20 19.9996H4V18.9996H20V19.9996ZM18 16.9996H17V9.99965H18V16.9996Z" fill="black" fill-opacity="0.5"/>
<path d="M12 7C12.5523 7 13 6.55228 13 6C13 5.44772 12.5523 5 12 5C11.4477 5 11 5.44772 11 6C11 6.55228 11.4477 7 12 7Z" fill="black" fill-opacity="0.5"/>
</svg>
