<svg width="32" height="32" viewBox="0 0 32 32" fill="none" xmlns="http://www.w3.org/2000/svg">
<path d="M26.8133 7.64771C26.7839 7.47487 26.7204 7.3096 26.6267 7.16146C26.5329 7.01332 26.4107 6.88525 26.2671 6.78468C26.1235 6.6841 25.9614 6.61302 25.7901 6.57555C25.6188 6.53808 25.4418 6.53496 25.2693 6.56637L12.1333 8.88237C11.786 8.94476 11.4775 9.14232 11.2756 9.43174C11.0736 9.72116 10.9947 10.0788 11.056 10.4264L12.9093 20.933C12.9638 21.2415 13.1252 21.5209 13.3651 21.7223C13.605 21.9236 13.9081 22.0341 14.2213 22.0344C14.2992 22.0344 14.3768 22.0273 14.4533 22.013L27.584 19.6984C27.7565 19.6681 27.9213 19.6041 28.069 19.5102C28.2168 19.4162 28.3446 19.294 28.4451 19.1506C28.5457 19.0072 28.617 18.8455 28.655 18.6745C28.693 18.5036 28.697 18.3268 28.6667 18.1544L26.8133 7.64771ZM15.304 19.1544L13.9147 11.277L24.4187 9.42371L25.808 17.301L15.304 19.1544Z" fill="#325F6B"/>
<path d="M25.1787 22.2243C25.0311 22.0254 24.8311 21.8715 24.601 21.7799C24.3709 21.6883 24.1199 21.6626 23.876 21.7057L14.4427 23.3683C14.1504 22.8538 13.7477 22.4106 13.2636 22.0705C12.7794 21.7304 12.2258 21.502 11.6427 21.4017L9.04932 6.719C8.95804 6.20166 8.76574 5.70737 8.48342 5.26436C8.2011 4.82135 7.83427 4.43828 7.4039 4.13705C6.97352 3.83581 6.48803 3.6223 5.97513 3.5087C5.46223 3.3951 4.93198 3.38365 4.41466 3.475C4.23979 3.50283 4.07221 3.56521 3.92172 3.65851C3.77122 3.7518 3.64081 3.87414 3.5381 4.01838C3.4354 4.16262 3.36245 4.32587 3.32352 4.49861C3.28459 4.67134 3.28045 4.85011 3.31136 5.02446C3.34226 5.19881 3.40758 5.36526 3.50351 5.51409C3.59944 5.66293 3.72405 5.79116 3.87008 5.89132C4.0161 5.99147 4.18061 6.06153 4.35401 6.09742C4.5274 6.13331 4.70621 6.13429 4.87999 6.10033C5.22791 6.03948 5.58576 6.11918 5.87499 6.32191C6.16421 6.52464 6.36118 6.83385 6.42266 7.18166L9.01199 21.867C8.24246 22.2997 7.6382 22.9754 7.29385 23.7883C6.9495 24.6012 6.88453 25.5054 7.10911 26.3592C7.33368 27.2129 7.83512 27.9681 8.53488 28.5064C9.23463 29.0447 10.0932 29.3356 10.976 29.3337C11.2093 29.3334 11.4421 29.3133 11.672 29.2737C12.4869 29.1338 13.2375 28.742 13.8182 28.1534C14.3989 27.5648 14.7805 26.809 14.9093 25.9923L23.528 24.4737L24.8133 26.207C25.0241 26.4911 25.3391 26.6799 25.689 26.7318C26.039 26.7837 26.3952 26.6944 26.6793 26.4837C26.9635 26.2729 27.1522 25.9579 27.2041 25.608C27.256 25.258 27.1667 24.9018 26.956 24.6177L25.1787 22.2243ZM12.0693 26.099C11.9175 26.3132 11.7059 26.4779 11.4609 26.5724C11.2159 26.6668 10.9484 26.6868 10.6921 26.6298C10.4358 26.5728 10.202 26.4415 10.02 26.2522C9.83809 26.0629 9.71608 25.824 9.66932 25.5657C9.60806 25.2177 9.68739 24.8597 9.88988 24.5702C10.0924 24.2807 10.4015 24.0834 10.7493 24.0217C10.8245 24.0076 10.9008 24.0005 10.9773 24.0003C11.2213 24.0003 11.4606 24.0672 11.6692 24.1938C11.8778 24.3204 12.0477 24.5018 12.1603 24.7182C12.2729 24.9347 12.324 25.1779 12.308 25.4213C12.2919 25.6648 12.2094 25.8992 12.0693 26.099Z" fill="#325F6B"/>
<path d="M20.712 11.4319L18.0853 11.8945C17.7566 11.9521 17.4615 12.1308 17.2582 12.3954C17.0548 12.66 16.9581 12.9912 16.9871 13.3236C17.0161 13.6561 17.1686 13.9655 17.4147 14.191C17.6607 14.4164 17.9823 14.5414 18.316 14.5412C18.3943 14.5413 18.4724 14.5341 18.5493 14.5199L21.1747 14.0572C21.3507 14.0308 21.5196 13.9695 21.6715 13.8768C21.8234 13.7841 21.9553 13.6619 22.0592 13.5174C22.1632 13.373 22.2372 13.2092 22.2768 13.0357C22.3165 12.8622 22.321 12.6825 22.2901 12.5072C22.2592 12.3319 22.1935 12.1646 22.097 12.0151C22.0004 11.8656 21.8749 11.737 21.7278 11.6368C21.5807 11.5365 21.4151 11.4668 21.2406 11.4316C21.0661 11.3964 20.8864 11.3965 20.712 11.4319V11.4319Z" fill="#325F6B"/>
</svg>
