<svg width="24" height="24" viewBox="0 0 24 24" fill="none" xmlns="http://www.w3.org/2000/svg">
<path d="M21.13 4.9C20.8527 4.61987 20.5225 4.39764 20.1585 4.24623C19.7946 4.09481 19.4042 4.01724 19.01 4.018L5.01001 4C4.21436 4 3.4513 4.31607 2.88869 4.87868C2.32608 5.44129 2.01001 6.20435 2.01001 7L1.99801 15C1.99634 15.3942 2.07291 15.7849 2.22328 16.1493C2.37365 16.5137 2.59483 16.8447 2.87401 17.123C2.91401 17.163 2.96201 17.193 3.00401 17.231V18C3.00401 18.7956 3.32008 19.5587 3.88269 20.1213C4.4453 20.6839 5.20836 21 6.00401 21H18C18.7957 21 19.5587 20.6839 20.1213 20.1213C20.6839 19.5587 21 18.7956 21 18V17.237C21.036 17.205 21.078 17.18 21.112 17.145C21.3921 16.8677 21.6144 16.5375 21.7658 16.1735C21.9172 15.8096 21.9948 15.4192 21.994 15.025L22.006 7.025C22.0079 6.63044 21.9315 6.23943 21.7811 5.87464C21.6308 5.50986 21.4094 5.17857 21.13 4.9V4.9ZM4.99301 16C4.7278 16 4.47344 15.8946 4.28591 15.7071C4.09837 15.5196 3.99301 15.2652 3.99301 15V14C4.52345 14 5.03215 14.2107 5.40723 14.5858C5.7823 14.9609 5.99301 15.4696 5.99301 16H4.99301ZM7.99301 16C7.99169 14.9408 7.5708 13.9252 6.82246 13.1755C6.07411 12.4258 5.05926 12.0032 4.00001 12V10H4.00601C5.06567 10 6.08202 9.57954 6.83197 8.8309C7.58191 8.08227 8.00416 7.06665 8.00601 6.007L16.006 6.019C16.0052 7.07935 16.4255 8.09663 17.1744 8.84725C17.9233 9.59787 18.9397 10.0204 20 10.022V12.022H19.994C18.9342 12.022 17.9177 12.4426 17.1677 13.1915C16.4177 13.9403 15.9956 14.9562 15.994 16.016L7.99301 16ZM19.993 14.018V15.018C19.993 15.2832 19.8877 15.5376 19.7001 15.7251C19.5126 15.9126 19.2582 16.018 18.993 16.018H17.993C17.9941 15.4883 18.2053 14.9806 18.5802 14.6064C18.9552 14.2322 19.4633 14.022 19.993 14.022V14.018ZM19.714 6.311C19.8071 6.40366 19.8808 6.51386 19.9309 6.63522C19.981 6.75659 20.0066 6.88669 20.006 7.018V8.018C19.4756 8.018 18.9669 7.80729 18.5918 7.43221C18.2167 7.05714 18.006 6.54843 18.006 6.018H19.006C19.1378 6.01798 19.2683 6.04423 19.3899 6.09523C19.5115 6.14622 19.6217 6.22094 19.714 6.315V6.311ZM5.00601 6H6.00601C6.00601 6.53043 5.7953 7.03914 5.42023 7.41421C5.04515 7.78929 4.53645 8 4.00601 8H4.00001V7C4.00001 6.86817 4.02607 6.73764 4.0767 6.61593C4.12733 6.49421 4.20153 6.3837 4.29502 6.29076C4.38852 6.19783 4.49947 6.12429 4.62149 6.07439C4.74351 6.02449 4.87419 5.99921 5.00601 6V6ZM18 19H6.00001C5.7348 19 5.48044 18.8946 5.29291 18.7071C5.10537 18.5196 5.00001 18.2652 5.00001 18L18.989 18.021H19C18.9945 18.2826 18.8867 18.5316 18.6998 18.7146C18.5129 18.8976 18.2616 19.0001 18 19V19Z" fill="black" fill-opacity="0.5"/>
<path d="M14.2 8.62074C13.9416 8.28253 13.6102 8.00704 13.2305 7.81484C12.8508 7.62264 12.4325 7.51868 12.007 7.51074H12C11.5755 7.51758 11.1579 7.62002 10.7784 7.81046C10.3989 8.00091 10.0672 8.27445 9.80801 8.61074C9.27527 9.29456 8.9904 10.139 9.00001 11.0057C8.94015 11.8653 9.22048 12.7139 9.78056 13.3686C10.3406 14.0233 11.1356 14.4317 11.994 14.5057V14.5057C12.8534 14.433 13.6497 14.0251 14.211 13.3703C14.7723 12.7155 15.0535 11.8662 14.994 11.0057C15.0048 10.1441 14.7251 9.30396 14.2 8.62074V8.62074ZM12 12.5107C11.467 12.5107 11 11.8107 11 11.0107C10.9926 10.5995 11.1221 10.1974 11.368 9.86774C11.441 9.76581 11.5354 9.68105 11.6445 9.61939C11.7537 9.55772 11.875 9.52064 12 9.51074V9.51074C12.1252 9.52037 12.2468 9.55732 12.3561 9.619C12.4655 9.68068 12.56 9.76559 12.633 9.86774C12.8787 10.1979 13.0077 10.6003 13 11.0117C13 11.8107 12.531 12.5107 12 12.5107Z" fill="black" fill-opacity="0.5"/>
</svg>
