<svg width="24" height="24" viewBox="0 0 24 24" fill="none" xmlns="http://www.w3.org/2000/svg">
<path d="M19.862 8H14.138C13.7482 8.00193 13.3622 8.07689 13 8.221V7C13 5.67392 12.4732 4.40215 11.5355 3.46447C10.5979 2.52678 9.32608 2 8 2C6.67392 2 5.40215 2.52678 4.46447 3.46447C3.52678 4.40215 3 5.67392 3 7V9C3.00144 10.2208 3.44881 11.399 4.258 12.313C3.30215 12.6693 2.47794 13.3091 1.89569 14.1468C1.31344 14.9844 1.00094 15.9799 1 17V20C1 20.5304 1.21071 21.0391 1.58579 21.4142C1.96086 21.7893 2.46957 22 3 22H14C14.016 22 14.03 21.992 14.046 21.991C14.077 21.991 14.106 22 14.138 22H19.862C20.6939 21.9989 21.4915 21.668 22.0797 21.0797C22.668 20.4915 22.9989 19.6939 23 18.862V11.138C22.9989 10.3061 22.668 9.50853 22.0797 8.92027C21.4915 8.33201 20.6939 8.00106 19.862 8V8ZM3 17C3 16.2044 3.31607 15.4413 3.87868 14.8787C4.44129 14.3161 5.20435 14 6 14C6.26522 14 6.51957 13.8946 6.70711 13.7071C6.89464 13.5196 7 13.2652 7 13V12.46C7.00017 12.2843 6.95405 12.1117 6.86627 11.9594C6.77849 11.8072 6.65216 11.6809 6.5 11.593C6.04469 11.3301 5.66645 10.9522 5.40319 10.4971C5.13993 10.042 5.00089 9.52575 5 9V7C5.00019 6.20667 5.31358 5.4455 5.872 4.882C6.44434 4.33792 7.20333 4.03369 7.99301 4.03183C8.78269 4.02997 9.5431 4.33062 10.118 4.872C10.6818 5.43682 10.9989 6.20195 11 7V9C11.0009 9.78865 10.6912 10.546 10.138 11.108C9.94862 11.2944 9.73663 11.4563 9.507 11.59C9.35309 11.6772 9.22507 11.8037 9.13601 11.9565C9.04694 12.1094 9.00001 12.2831 9 12.46V13C9 13.2652 9.10536 13.5196 9.29289 13.7071C9.48043 13.8946 9.73478 14 10 14C10.3425 14.0076 10.6809 14.0753 11 14.2V18.865C11.0024 19.2538 11.0773 19.6387 11.221 20H3V17ZM21 18.862C20.9995 19.1637 20.8794 19.4528 20.6661 19.6661C20.4528 19.8794 20.1637 19.9995 19.862 20H14.138C13.8363 19.9997 13.547 19.8798 13.3336 19.6664C13.1202 19.453 13.0003 19.1637 13 18.862V11.138C13.0003 10.8363 13.1202 10.547 13.3336 10.3336C13.547 10.1202 13.8363 10.0003 14.138 10H19.862C20.1637 10.0005 20.4528 10.1206 20.6661 10.3339C20.8794 10.5472 20.9995 10.8363 21 11.138V18.862Z" fill="black" fill-opacity="0.5"/>
<path d="M19 11H15C14.7348 11 14.4804 11.1054 14.2929 11.2929C14.1053 11.4804 14 11.7348 14 12C14 12.2652 14.1053 12.5196 14.2929 12.7071C14.4804 12.8946 14.7348 13 15 13H19C19.2652 13 19.5196 12.8946 19.7071 12.7071C19.8946 12.5196 20 12.2652 20 12C20 11.7348 19.8946 11.4804 19.7071 11.2929C19.5196 11.1054 19.2652 11 19 11ZM15.682 14.243C15.5925 14.1534 15.4861 14.0823 15.3691 14.0338C15.2521 13.9853 15.1267 13.9603 15 13.9603C14.8733 13.9603 14.7479 13.9853 14.6308 14.0338C14.5138 14.0823 14.4075 14.1534 14.318 14.243L14.282 14.278C14.1015 14.4591 14.0001 14.7043 14.0001 14.96C14.0001 15.2157 14.1015 15.4609 14.282 15.642L14.318 15.677C14.4075 15.7666 14.5138 15.8377 14.6308 15.8862C14.7479 15.9347 14.8733 15.9597 15 15.9597C15.1267 15.9597 15.2521 15.9347 15.3691 15.8862C15.4861 15.8377 15.5925 15.7666 15.682 15.677L15.717 15.642C15.8066 15.5525 15.8777 15.4462 15.9262 15.3291C15.9747 15.2121 15.9997 15.0867 15.9997 14.96C15.9997 14.8333 15.9747 14.7079 15.9262 14.5909C15.8777 14.4738 15.8066 14.3675 15.717 14.278L15.682 14.243ZM19.682 14.243C19.5924 14.1534 19.4861 14.0823 19.3691 14.0338C19.2521 13.9853 19.1267 13.9603 19 13.9603C18.8733 13.9603 18.7479 13.9853 18.6308 14.0338C18.5138 14.0823 18.4075 14.1534 18.318 14.243L18.282 14.278C18.1015 14.4591 18.0001 14.7043 18.0001 14.96C18.0001 15.2157 18.1015 15.4609 18.282 15.642L18.318 15.677C18.4075 15.7666 18.5138 15.8377 18.6308 15.8862C18.7479 15.9347 18.8733 15.9597 19 15.9597C19.1267 15.9597 19.2521 15.9347 19.3691 15.8862C19.4861 15.8377 19.5924 15.7666 19.682 15.677L19.717 15.642C19.8066 15.5525 19.8777 15.4462 19.9262 15.3291C19.9747 15.2121 19.9997 15.0867 19.9997 14.96C19.9997 14.8333 19.9747 14.7079 19.9262 14.5909C19.8777 14.4738 19.8066 14.3675 19.717 14.278L19.682 14.243ZM15.682 17.243C15.5925 17.1534 15.4861 17.0823 15.3691 17.0338C15.2521 16.9853 15.1267 16.9603 15 16.9603C14.8733 16.9603 14.7479 16.9853 14.6308 17.0338C14.5138 17.0823 14.4075 17.1534 14.318 17.243L14.282 17.278C14.1015 17.4591 14.0001 17.7043 14.0001 17.96C14.0001 18.2157 14.1015 18.4609 14.282 18.642L14.318 18.677C14.4075 18.7666 14.5138 18.8377 14.6308 18.8862C14.7479 18.9347 14.8733 18.9597 15 18.9597C15.1267 18.9597 15.2521 18.9347 15.3691 18.8862C15.4861 18.8377 15.5925 18.7666 15.682 18.677L15.717 18.642C15.8066 18.5525 15.8777 18.4462 15.9262 18.3291C15.9747 18.2121 15.9997 18.0867 15.9997 17.96C15.9997 17.8333 15.9747 17.7079 15.9262 17.5909C15.8777 17.4738 15.8066 17.3675 15.717 17.278L15.682 17.243ZM19.682 17.243C19.5924 17.1534 19.4861 17.0823 19.3691 17.0338C19.2521 16.9853 19.1267 16.9603 19 16.9603C18.8733 16.9603 18.7479 16.9853 18.6308 17.0338C18.5138 17.0823 18.4075 17.1534 18.318 17.243L18.282 17.278C18.1015 17.4591 18.0001 17.7043 18.0001 17.96C18.0001 18.2157 18.1015 18.4609 18.282 18.642L18.318 18.677C18.4075 18.7666 18.5138 18.8377 18.6308 18.8862C18.7479 18.9347 18.8733 18.9597 19 18.9597C19.1267 18.9597 19.2521 18.9347 19.3691 18.8862C19.4861 18.8377 19.5924 18.7666 19.682 18.677L19.717 18.642C19.8066 18.5525 19.8777 18.4462 19.9262 18.3291C19.9747 18.2121 19.9997 18.0867 19.9997 17.96C19.9997 17.8333 19.9747 17.7079 19.9262 17.5909C19.8777 17.4738 19.8066 17.3675 19.717 17.278L19.682 17.243ZM9.46198 14.809C9.42418 14.7176 9.36011 14.6394 9.27787 14.5844C9.19563 14.5294 9.09892 14.5 8.99998 14.5H6.99998C6.90096 14.4998 6.80412 14.5291 6.72173 14.584C6.63934 14.6389 6.57511 14.7171 6.53719 14.8085C6.49928 14.9 6.48937 15.0007 6.50874 15.0978C6.52811 15.1949 6.57587 15.2841 6.64598 15.354L7.17798 15.885L6.52598 17.842C6.49645 17.9301 6.49204 18.0246 6.51323 18.115C6.53443 18.2055 6.58039 18.2882 6.64598 18.354L7.64598 19.354C7.69242 19.4006 7.7476 19.4375 7.80835 19.4627C7.86909 19.4879 7.93421 19.5009 7.99998 19.5009C8.06575 19.5009 8.13087 19.4879 8.19161 19.4627C8.25236 19.4375 8.30753 19.4006 8.35398 19.354L9.35398 18.354C9.41956 18.2882 9.46553 18.2055 9.48673 18.115C9.50792 18.0246 9.50351 17.9301 9.47398 17.842L8.82198 15.885L9.35398 15.354C9.42386 15.284 9.47142 15.1949 9.49065 15.0979C9.50987 15.0009 9.49989 14.9003 9.46198 14.809V14.809Z" fill="black" fill-opacity="0.5"/>
</svg>
