<svg width="24" height="24" viewBox="0 0 24 24" fill="none" xmlns="http://www.w3.org/2000/svg">
<path d="M21.912 11.522L19.273 5.183C19.273 5.173 19.261 5.166 19.257 5.156C19.2005 5.02527 19.1122 4.91078 19 4.823C18.937 4.76756 18.8671 4.7205 18.792 4.683C18.7614 4.666 18.7296 4.65097 18.697 4.638C18.586 4.59311 18.4677 4.56904 18.348 4.567H13V4C13 3.73478 12.8947 3.48043 12.7071 3.29289C12.5196 3.10536 12.2652 3 12 3C11.7348 3 11.4805 3.10536 11.2929 3.29289C11.1054 3.48043 11 3.73478 11 4V4.567H5.65103C5.53132 4.56904 5.41302 4.59311 5.30203 4.638C5.26775 4.6508 5.23434 4.66584 5.20203 4.683C5.12939 4.7211 5.06157 4.76777 5.00003 4.822C4.97403 4.846 4.94703 4.866 4.92303 4.892C4.849 4.97069 4.78821 5.06086 4.74303 5.159C4.73833 5.16611 4.73399 5.17345 4.73003 5.181L2.08903 11.521C2.01192 11.7036 1.99081 11.905 2.02838 12.0996C2.06595 12.2942 2.1605 12.4732 2.30003 12.614C3.18844 13.5003 4.39212 13.998 5.64703 13.998C6.90194 13.998 8.10562 13.5003 8.99403 12.614C9.13419 12.4739 9.22956 12.2953 9.26802 12.1008C9.30648 11.9064 9.28629 11.7049 9.21003 11.522L7.15003 6.567H11V15.51L6.36503 19.219C6.20315 19.3484 6.08549 19.525 6.02833 19.7242C5.97117 19.9235 5.97734 20.1355 6.04597 20.3311C6.11461 20.5267 6.24232 20.6961 6.41145 20.816C6.58057 20.9358 6.78275 21.0001 6.99003 21H16.99C17.1973 21.0001 17.3995 20.9358 17.5686 20.816C17.7377 20.6961 17.8654 20.5267 17.9341 20.3311C18.0027 20.1355 18.0089 19.9235 17.9517 19.7242C17.8946 19.525 17.7769 19.3484 17.615 19.219L13 15.528V6.567H16.85L14.786 11.522C14.7095 11.7047 14.689 11.9061 14.7271 12.1005C14.7652 12.2949 14.8602 12.4737 15 12.614C15.8886 13.5004 17.0925 13.9981 18.3475 13.9981C19.6026 13.9981 20.8064 13.5004 21.695 12.614C21.8354 12.474 21.9309 12.2954 21.9696 12.101C22.0082 11.9066 21.9882 11.705 21.912 11.522ZM4.22203 11.6L5.65103 8.17L7.07803 11.6C6.64785 11.8622 6.1538 12.0008 5.65003 12.0008C5.14626 12.0008 4.65221 11.8622 4.22203 11.6V11.6ZM9.84003 19L11.99 17.281L14.139 19H9.84003ZM16.921 11.6L18.35 8.17L19.778 11.6C19.3477 11.8621 18.8535 12.0008 18.3495 12.0008C17.8456 12.0008 17.3514 11.8621 16.921 11.6V11.6Z" fill="black" fill-opacity="0.5"/>
</svg>
